<svg id="1Ctnc11CX" viewBox="0 0 445.2633333729808 72.39984970081079"  width="250" xmlns="http://www.w3.org/2000/svg" version="1.1" xmlns:xlink="http://www.w3.org/1999/xlink"><defs id="SvgjsDefs1104"></defs><g id="SvgjsG1105" featurekey="nameLeftFeature-0" transform="matrix(1.9512862952950383,0,0,1.9512862952950383,-0.7246103214213968,11.594803443500671)" fill="#111111"><path d="M9.3 19.98 c-0.12 0 -0.32 -0.06 -0.32 -0.3 c0 -0.28 0.28 -0.2 0.42 -0.28 l1.3 0 c0.22 -0.24 0.2 -0.18 0.2 -0.58 c0 -0.22 -0.04 -1.9 -0.04 -2.12 c0 -1 0.02 -1.82 0.08 -2.64 c0 -0.06 0 -0.06 -0.04 -0.12 l0 -1.08 c-0.1 -0.1 -0.14 -0.34 -0.22 -0.34 c-0.72 0 -0.9 0.04 -1.26 0.04 c-0.08 0 -0.86 -0.04 -1.04 -0.04 l0 -0.04 l-0.28 0 l0.06 0.04 c-0.66 0 -0.58 0.06 -1.18 0.06 c-0.16 0 -0.78 -0.02 -0.98 -0.02 l-0.64 0 l-0.08 0.18 c0 1.06 -0.02 2.34 -0.08 2.76 c0 0.08 0.08 0.16 0.08 0.36 l0 3.36 c0 0.08 0.14 0.2 0.24 0.32 c0.44 0 0.94 -0.12 1.22 -0.12 c0.12 0 0.46 -0.02 0.46 0.36 c-0.04 -0.02 -0.06 -0.06 -0.06 -0.12 c-0.02 0 -0.1 0.08 -0.1 0.22 c0.04 0 0.06 0 0.1 -0.02 c-0.02 0.12 -0.14 0.12 -0.24 0.12 l0 -0.12 c-0.06 0 -0.14 0.08 -0.18 0.12 c-0.52 0 -4.32 0.06 -5.94 0.06 c-0.1 0 -0.24 -0.02 -0.32 -0.16 l0 -0.26 l-0.02 0 c0 -0.02 0.48 -0.22 0.48 -0.22 c0.3 0 0.48 0.1 1.1 0.1 c0.34 0 0.22 -0.14 0.36 -0.2 c0 -1.16 -0.04 -1.36 -0.04 -1.68 c0 -0.94 0.04 -1.28 0.04 -1.7 c0 -0.3 -0.04 -1.02 -0.04 -1.48 c0 -0.04 0.04 -0.28 0.04 -0.32 c0 -0.26 -0.04 -0.56 -0.04 -1.26 l0.04 -0.06 c0 -0.08 -0.04 -0.16 -0.04 -0.24 l0 -3.06 l0.06 -0.04 c0 -0.02 -0.06 -0.1 -0.06 -0.26 l0 -3.38 s-0.06 -0.04 -0.06 -0.08 c0 -0.2 -0.78 -0.18 -0.92 -0.2 c-0.02 0 -0.28 0.04 -0.38 0.04 c-0.42 0 -0.54 -0.08 -0.6 -0.22 c0 -0.16 -0.1 -0.36 0.38 -0.44 l6.22 0 c0.02 0.02 0.22 0 0.22 0.32 c0 0.16 -0.26 0.38 -0.34 0.38 l-0.04 0.02 s0.02 0 0.02 -0.02 c0 0 -0.08 -0.08 -0.6 -0.08 l-0.68 0 c-0.36 0 -0.36 0.94 -0.36 0.98 c0 0.06 0.04 0.16 0.04 0.28 c-0.04 0.12 -0.04 0.2 -0.04 0.28 c0 0.24 0.04 0.34 0.04 0.5 c-0.04 0.06 -0.04 0.12 -0.04 0.14 c0 0.08 0.04 0.16 0.04 0.22 l0 2.48 c0 0.1 -0.06 0.36 -0.06 0.36 c0 0.1 0.06 0.34 0.06 0.44 c-0.04 0.06 -0.04 0.08 -0.04 0.1 s0.06 -0.02 0.06 0.02 c0 0.08 -0.08 0.22 -0.08 0.36 c0 0.16 0.1 0.32 0.46 0.32 c1.18 0 2.06 -0.08 3.06 -0.08 c0 0 0.12 0.02 0.14 0.02 l1.2 0 c0.06 0 0.14 0.06 0.26 0.06 c0.18 0 0.56 -0.06 0.56 -0.36 c0 -1.26 -0.04 -1.42 -0.04 -2.06 c0 -0.12 0.04 -0.3 0.04 -0.5 c0 -0.6 -0.04 -1 -0.04 -1.44 l0.02 -0.14 s-0.02 -0.16 -0.02 -0.22 c0 -0.36 0.02 -0.5 0.02 -1.06 l-0.02 0.02 c-0.02 -0.06 0.12 -0.74 -0.3 -0.74 c-0.04 0 -0.1 0.02 -0.14 0.02 c-0.2 0 -0.56 -0.04 -0.54 -0.04 c-0.14 0 -0.26 0.04 -0.36 0.04 c-0.56 0 -0.6 -0.3 -0.6 -0.3 c0 -0.2 0.34 -0.4 0.9 -0.4 c0.02 0.02 -0.02 -0.02 0.22 0.04 c0.34 0 0.34 0.02 0.38 -0.04 c0.24 0 0.46 0.06 0.7 0.06 c0.04 0 0.08 -0.02 0.14 -0.06 c0.04 0 0.14 0.04 0.18 0.04 l1.72 0 c0.08 0 0.28 -0.04 0.36 -0.06 c0.04 0 0.04 0.06 0.04 0.06 l0.96 0 l0.06 -0.04 c0.3 0.08 0.76 0.04 0.94 0.08 l0.12 0.12 c0 0.3 0.04 0.66 -0.64 0.66 c0 -0.12 -1.16 -0.16 -1.16 -0.16 l0 0 c0 0.02 0.02 -0.04 -0.02 -0.04 c-0.06 0 -0.1 0.24 -0.18 1.8 c0 0.08 0.04 0.12 0.04 0.24 c0 0.06 0 0.1 -0.04 0.14 c0 0.02 0.04 0.1 0.04 0.14 l0.04 1.08 l0 8.12 c0 0.04 0.04 0.26 0.04 0.28 c0 0.06 -0.04 0.14 -0.04 0.4 c0 0.08 0 0.44 0.04 0.54 l0 0.1 c0 1 0.1 1.08 0.48 1.08 c0.1 0 0.22 -0.02 0.34 -0.02 c0.06 0 0.16 0.02 0.26 0.02 c0.12 0 0.24 -0.02 0.3 -0.08 c0.48 0.1 0.54 0.2 0.54 0.48 c0 0.12 -0.06 0.3 -0.52 0.3 c-0.68 0 -3.36 -0.14 -5.82 -0.14 z M0.62 19.92 l-0.02 -0.04 z M1.36 19.88 l0 0.04 l0.32 0 c0 -0.1 -0.1 -0.16 -0.16 -0.16 c-0.06 0.06 -0.12 0.14 -0.16 0.12 z M6.66 19.88 l0.06 0.04 c-0.02 0 -0.04 -0.02 -0.06 -0.04 z M10.68 19.88 l0 0.04 l0.02 -0.04 l-0.02 0 z M6.1 19.76 c0 0.14 0.06 0.12 0.08 0.16 l0 -0.18 c-0.04 0 -0.06 0 -0.08 0.02 z M10.06 19.86 l0 0.02 l0.04 0 z M10.82 19.86 l0 0.02 l0.02 0 z M9.6 19.78 l0 0.08 c0.02 -0.02 0.04 -0.04 0.04 -0.08 l-0.04 0 z M1.88 19.74 c0.1 0 0.16 0.02 0.26 0.08 c-0.04 0 0.1 0 0.1 -0.04 s-0.2 -0.1 -0.36 -0.12 l0 0.08 z M9.1 19.62 l-0.04 0.12 l0.04 0 l0 -0.12 z M0.66 19.58 c-0.02 0 -0.04 0.02 -0.04 0.04 s0.02 0.04 0.04 0.04 s0.02 -0.02 0.02 -0.04 s0 -0.04 -0.02 -0.04 z M11.4 19.58 l-0.04 0 c0 0.02 0 0.04 0.02 0.04 c0 0 0.02 -0.02 0.02 -0.04 z M2.74 13.96 c-0.02 0 -0.04 0.02 -0.04 0.04 c0 0 0.02 0.02 0.04 0.02 l0.02 -0.02 c0 -0.02 -0.02 -0.04 -0.02 -0.04 z M4.62 12.86 c-0.04 0 -0.06 0 -0.06 0.04 l0.06 0 l0 -0.04 z M2.5 11.5 c-0.02 0 -0.04 0.02 -0.04 0.04 s0.02 0.04 0.04 0.04 s0.02 -0.02 0.02 -0.04 s0 -0.04 -0.02 -0.04 z M2.42 9.5 l0.02 0 l-0.04 0 s-0.02 0 0.02 0 z M4.38 9.42 c0 0.02 -0.02 0.02 -0.02 0.04 s0.02 0.02 0.04 0.04 l0.02 -0.08 l-0.04 0 z M2.5 8 l0 0.04 l0.02 0.02 c0.02 0 0.04 -0.02 0.06 -0.06 l-0.08 0 z M2.46 7.66 l0.04 0.02 l0.04 -0.02 l-0.08 0 z M11.28 7.539999999999999 c-0.02 0 -0.02 0.02 -0.02 0.04 s0 0.04 0.02 0.04 s0.02 -0.02 0.02 -0.04 s0 -0.04 -0.02 -0.04 z M1.86 5.359999999999999 c0 0.02 0 0.04 0.02 0.06 c0.04 -0.02 0.04 -0.06 0.04 -0.08 c-0.04 0 -0.06 0.02 -0.06 0.02 z M13.56 5.359999999999999 l0 0.02 l0.02 0 c0 -0.02 0 -0.02 -0.02 -0.02 z M11.06 5.359999999999999 l-0.08 -0.02 z M14.32 5.34 c-0.02 0 -0.04 0.02 -0.04 0.02 s0.02 0.02 0.04 0.02 l0.02 -0.02 z M0.7 5.1 c-0.16 0 -0.16 0.08 -0.16 0.24 c0 0 0.16 0 0.16 -0.24 z M15.38 5.140000000000001 l0 0.16 l0.1 0 c0 -0.14 -0.12 -0.16 -0.1 -0.16 z M2.04 5.24 c0 0 -0.02 0.02 -0.02 0.04 l0.02 0.02 c0.02 0 0.02 -0.02 0.02 -0.02 c0 -0.02 0 -0.04 -0.02 -0.04 z M5.64 5.140000000000001 c0.02 0.04 0.04 0.08 0.04 0.12 c0.1 0 0.08 0 0.12 -0.02 c0 -0.08 -0.06 -0.1 -0.1 -0.1 l-0.06 0 z M10.32 5.18 c0 0 -0.02 0 -0.02 0.02 s0.02 0.04 0.02 0.04 c0.02 0 0.02 -0.02 0.02 -0.04 s0 -0.02 -0.02 -0.02 z M15.06 5 c0 0.02 0 0.18 0.1 0.24 c0 -0.04 0.02 -0.14 0.02 -0.24 l-0.12 0 z M9.1 5.08 l0 0.1 c0.04 -0.02 0.04 -0.06 0.04 -0.1 l-0.04 0 z M11.9 5.140000000000001 c-0.02 0 -0.02 0.02 -0.02 0.02 c0 0.02 0 0.02 0.02 0.02 s0.02 0 0.02 -0.02 c0 0 0 -0.02 -0.02 -0.02 z M13.02 5.1 l-0.02 0.02 c0 0.02 0.02 0.02 0.02 0.02 c0.02 0 0.02 0 0.02 -0.02 c0 0 0 -0.02 -0.02 -0.02 z M2.04 5.08 c0 0 -0.02 0.02 -0.02 0.04 l0.02 0.02 c0.02 0 0.02 -0.02 0.02 -0.02 c0 -0.02 0 -0.04 -0.02 -0.04 z M6.46 5.1 l-0.02 -0.02 c-0.02 0 -0.02 0.02 -0.02 0.02 c0 0.02 0 0.04 0.02 0.04 c0 0 0.02 -0.02 0.02 -0.04 z M5.64 5.039999999999999 c-0.02 0 -0.04 0.02 -0.04 0.04 c0 0 0.02 0.02 0.04 0.02 l0 -0.06 z M11.06 5.039999999999999 c-0.02 0 -0.02 0.02 -0.02 0.04 c0 0 0 0.02 0.02 0.02 s0.02 -0.02 0.02 -0.02 c0 -0.02 0 -0.04 -0.02 -0.04 z M14.78 5.08 c0 -0.02 -0.02 -0.02 -0.04 -0.02 s-0.04 0 -0.04 0.02 s0.02 0.02 0.04 0.02 s0.04 0 0.04 -0.02 z M19.839 20.08 c-0.22 0 -0.22 0.02 -0.36 0.02 c-0.04 0 -0.22 -0.16 -0.28 -0.22 c0 0 0.04 -0.3 0.04 -0.36 c0.72 -0.06 1.24 -0.08 1.8 -0.14 c0.06 0 0 -0.38 0.22 -0.38 l0 -0.32 c0.02 0.02 0.04 0.02 0.04 0.02 c0.12 0 0.1 -0.56 0.26 -0.6 c0 -0.04 0.08 -0.72 0.28 -0.88 l0.1 -0.38 s0.68 -2.32 0.94 -2.32 c0.02 0 0.06 0.02 0.08 0.02 c0.1 0 0.12 -0.04 0.12 -0.08 c0 -0.18 -0.16 -0.1 -0.16 -0.24 c0 -0.36 0.36 -1.04 0.4 -1.08 c0.02 -0.82 0.32 -0.62 0.32 -1.14 l0 0.02 c0.02 0 0.18 -0.5 0.26 -0.56 c0 0.04 0.02 0.04 0.02 0.04 s-0.02 0 -0.02 -0.02 c0 -0.12 0.4 -0.94 0.4 -1.16 c0.1 0 0.12 -0.02 0.12 -0.06 s-0.02 -0.08 -0.02 -0.14 c0 -0.12 0.04 -0.24 0.18 -0.4 l0 0.02 c0.04 0 0.02 -0.44 0.18 -0.44 l0.08 -0.38 l0.12 -0.1 l0 -0.32 l0.16 -0.12 l0 -0.34 s0.12 -0.04 0.12 -0.08 c-0.02 0 -0.04 -0.04 -0.04 -0.06 c0 -0.26 0.5 -1.02 0.5 -1.54 l0.1 -0.08 l0 -0.32 c0 0.02 0.02 0.02 0.02 0.02 c0.28 0 -0.1 -1.16 0.94 -1.16 c0.08 0 0.44 0.22 0.44 0.52 c0.08 0.08 -0.08 0.28 0.28 0.94 c0.02 0 0.5 1.3 0.5 1.64 c0.18 0 0.06 0.4 0.52 1.36 c0.12 0.54 0.34 0.52 0.34 0.76 l0 -0.02 s0.1 0.64 0.18 0.64 l-0.02 0 c0 0.08 0.48 0.6 0.48 1.22 c0.12 0.58 0.32 0.34 0.32 0.84 l-0.02 -0.02 c0 0.04 0.32 0.46 0.32 0.72 c-0.02 0 -0.04 0 -0.04 0.02 c0 0.08 0.22 0.36 0.22 0.46 c0 0.02 -0.02 0.02 -0.02 0.04 c0 0.04 0.2 0.2 0.2 0.56 c0.08 0.7 0.42 0.74 0.42 1.18 c-0.02 0.04 -0.04 0.06 -0.04 0.08 c0 0.1 0.32 0.1 0.32 0.56 c0 1.14 0.78 1.4 0.78 2.2 c0.08 0.64 0.46 0.86 0.52 0.9 l1.3 0 c0.08 0 0.2 0.06 0.26 0.1 l0 0.36 c-0.08 0.04 -0.14 0.12 -0.46 0.12 c-0.04 0 -1 -0.04 -1.4 -0.04 c-0.18 0 -0.34 0.04 -0.5 0.04 c-0.02 0 -0.34 -0.04 -0.38 -0.04 c-1.08 0 -1.76 0.06 -2.18 0.06 c-0.02 0 -0.02 -0.06 -0.34 -0.06 c-0.16 0 -0.2 0 -0.28 0.04 c-0.1 0 -0.18 -0.04 -0.22 -0.1 c-0.04 0 -0.12 0.02 -0.12 0.02 l0.04 0.04 l-0.04 0.04 c-0.66 0 -0.72 0 -0.86 -0.12 l0.04 -0.34 c0 -0.04 0.14 -0.12 0.22 -0.12 l1.5 0 c0.02 0.02 0.16 -0.1 0.16 -0.2 c0 -0.04 -0.32 -0.46 -0.32 -0.7 c0.04 -0.02 0.04 -0.02 0.04 -0.06 c0 -0.1 -0.34 -0.36 -0.34 -0.88 c0.02 0 0.02 0 0.02 -0.02 c0 -0.04 -0.22 -0.2 -0.22 -0.36 c0 -0.72 -0.32 -0.72 -0.32 -1.26 l0 0.02 c-0.04 0 -0.22 -0.5 -0.4 -0.5 c-1.34 0 -2.76 0.04 -4.38 0.04 c0 0.08 -0.16 0.12 -0.16 0.34 c-0.3 0.66 -0.34 0.56 -0.34 0.88 c-0.24 0.16 0.02 0.28 -0.26 0.62 c-0.16 1.1 -0.38 0.48 -0.38 1.22 l0 -0.02 c-0.04 0 -0.22 0.52 -0.24 0.52 c0 0.32 0.08 0.32 0.2 0.4 l1.6 0 c0.1 0 0.3 0.02 0.3 0.26 s-0.06 0.36 -0.42 0.36 c-0.06 0 -0.14 -0.04 -0.24 -0.04 c-0.22 0 -0.3 0.04 -0.4 0.04 c-0.04 0 -0.14 -0.04 -0.16 -0.04 l-1.42 0 c-0.04 0.04 -0.08 0.04 -0.12 0.04 c-0.06 0 -0.16 -0.02 -0.24 -0.08 c0 0 0.04 -0.04 0.04 -0.08 l-0.06 0 c-0.04 0 -0.06 0 -0.06 0.04 l0.02 0.04 c-0.02 0.08 -0.04 0.08 -0.16 0.08 c0 -0.26 0 -0.2 0.06 -0.28 c-0.02 -0.08 0.02 -0.18 -0.04 -0.22 c0 0.14 -0.06 0.24 -0.18 0.32 c0 0.04 0.06 0.08 0.1 0.1 c-0.08 0 -0.3 0.1 -0.34 0.16 c-0.36 0 -0.32 -0.08 -0.54 -0.08 z M19.679 19.92 l0 0.04 l0.1 0 c-0.06 -0.04 -0.08 -0.04 -0.1 -0.04 z M20.019000000000002 19.96 c0 -0.02 -0.02 -0.02 -0.04 -0.02 s-0.04 0 -0.04 0.02 s0.02 0.04 0.04 0.04 s0.04 -0.02 0.04 -0.04 z M20.139 19.92 c-0.02 0 -0.04 0.02 -0.04 0.04 s0.02 0.04 0.04 0.04 s0.02 -0.02 0.02 -0.04 s0 -0.04 -0.02 -0.04 z M20.579 19.88 c-0.12 0 -0.28 0.04 -0.32 0.08 c0.34 0 0.24 -0.02 0.32 -0.08 z M21.239 19.9 c0 0.02 0.16 0.04 0.18 0.06 l0.04 -0.04 c-0.1 -0.02 -0.2 -0.02 -0.22 -0.02 z M22.719 19.92 c0.26 0 0.66 0.04 0.76 0.04 c-0.22 0 -0.22 -0.22 -0.24 -0.32 c0.02 0 -0.16 0.04 -0.16 0.16 c-0.04 0 -0.02 -0.12 -0.18 -0.12 c0 0.14 -0.08 0.18 -0.18 0.24 z M23.639 19.92 l0.04 0.04 c0.02 0 0.14 -0.04 0.18 -0.04 l-0.22 0 z M20.879 19.9 c-0.02 0 -0.04 0.02 -0.04 0.04 c0 0 0.02 0.02 0.04 0.02 s0.02 -0.02 0.02 -0.02 c0 -0.02 0 -0.04 -0.02 -0.04 z M22.459 19.92 c0 0 -0.04 -0.02 -0.06 -0.02 c-0.04 0 -0.04 0.02 -0.04 0.02 c0 0.02 0 0.04 0.04 0.04 c0.02 0 0.06 -0.02 0.06 -0.04 z M27.378999999999998 19.88 c0.02 0.02 0.08 0.04 0.1 0.04 s0.12 -0.02 0.16 -0.04 l0 -0.24 s-0.04 -0.02 -0.06 -0.02 c-0.18 0 -0.2 0.04 -0.2 0.12 l0 0.14 z M32.799 19.9 c0.06 0 0.08 0.02 0.18 0.02 c0.02 0 0.12 -0.02 0.18 -0.02 l-0.36 0 z M33.759 19.9 l0 0.02 l0.02 -0.02 l-0.02 0 z M27.939 19.88 l-0.04 0.02 l0.06 0.02 z M29.439 19.88 c-0.02 0 -0.04 0.02 -0.04 0.02 s0.02 0.02 0.04 0.02 s0.02 -0.02 0.02 -0.02 s0 -0.02 -0.02 -0.02 z M32.179 19.88 c0.02 0.02 0.04 0.02 0.1 0.02 l0.38 0 c-0.02 -0.02 -0.06 -0.04 -0.1 -0.06 c-0.04 0.04 -0.1 0.04 -0.12 0.04 c-0.18 0 -0.14 -0.14 -0.18 -0.14 z M19.359 19.74 c0 0.12 0 0.1 0.04 0.14 l0.26 0 l0 -0.34 c-0.28 0.14 -0.3 0.08 -0.3 0.2 z M23.579 19.78 l0 0.1 c0.04 0 0.06 -0.04 0.06 -0.04 c-0.02 -0.12 -0.08 -0.12 -0.08 -0.22 c-0.08 0 -0.12 0.04 -0.12 0.06 c0.02 0.04 0.04 0.1 0.14 0.1 z M33.359 19.84 c-0.02 0 -0.02 0.02 -0.02 0.04 s0 0.02 0.02 0.02 s0.02 0 0.02 -0.02 s0 -0.04 -0.02 -0.04 z M19.899 19.62 c0 0.16 -0.02 0.2 -0.06 0.22 c0.12 0 0.22 0 0.22 -0.12 s-0.02 -0.1 -0.16 -0.1 z M22.019 19.8 l0 0.04 l0.04 0 z M22.379 19.72 l0.04 0.02 l0 -0.06 z M23.679000000000002 19.58 c0 0.02 0 0.06 0.02 0.06 c0 0 0.08 0 0.08 -0.06 c0 -0.04 -0.04 -0.04 -0.08 -0.06 c-0.02 0.02 -0.02 0.04 -0.02 0.06 z M32.819 19.62 c0 0.02 0.04 0.02 0.06 0.02 c0 -0.1 0 -0.1 -0.04 -0.12 c0 0 -0.02 0.06 -0.02 0.1 z M33.699 19.48 c-0.1 0.02 -0.08 0.06 -0.08 0.16 l0.16 -0.1 c0 -0.02 -0.06 -0.04 -0.08 -0.06 z M32.179 19.54 c-0.02 0 -0.04 0.02 -0.04 0.02 c0 0.02 0.02 0.02 0.04 0.02 s0.02 0 0.02 -0.02 c0 0 0 -0.02 -0.02 -0.02 z M21.199 19.48 l0 0.06 l0.04 -0.06 l-0.04 0 z M21.259 19.18 c0 0.02 0.02 0.3 0.2 0.3 c-0.04 -0.02 -0.1 -0.2 -0.1 -0.3 l0.04 -0.12 l-0.04 -0.04 c-0.08 0 -0.1 0.12 -0.1 0.16 z M21.999 18.24 c-0.06 0.04 -0.14 0.16 -0.14 0.32 c0.02 0.02 0.04 0.02 0.04 0.02 c0.08 0 0.1 -0.12 0.12 -0.18 c0 -0.02 -0.02 -0.18 -0.02 -0.16 z M21.899 17.72 c0 -0.02 -0.02 -0.02 -0.02 -0.02 c-0.02 0 -0.02 0 -0.02 0.02 s0 0.02 0.02 0.02 c0 0 0.02 0 0.02 -0.02 z M22.459 16.28 c-0.02 0 -0.04 0.02 -0.04 0.02 s0.02 0.02 0.04 0.02 l0.02 -0.02 z M28.139 16 c-0.02 0 -0.02 0.02 -0.02 0.04 s0 0.04 0.02 0.04 s0.02 -0.02 0.02 -0.04 s0 -0.04 -0.02 -0.04 z M22.639 15.84 c-0.02 0 -0.02 0.02 -0.02 0.04 s0 0.04 0.02 0.04 s0.02 -0.02 0.02 -0.04 s0 -0.04 -0.02 -0.04 z M22.639 15.42 c-0.02 0 -0.02 0.02 -0.02 0.02 c0 0.02 0 0.02 0.02 0.02 s0.02 0 0.02 -0.02 c0 0 0 -0.02 -0.02 -0.02 z M23.559 14.6 c0.06 0.24 0.08 0.26 0.22 0.34 c0.24 0 0.9 -0.04 2.72 -0.04 c0.16 0 0.24 0.06 0.64 0.06 c0.2 0 0.4 -0.06 0.4 -0.28 c0 -0.1 -0.26 -0.48 -0.26 -0.68 l0.02 0 c0 -0.04 -0.22 -0.22 -0.22 -0.44 c0 -0.74 -0.38 -0.66 -0.38 -1.12 c0.02 0.02 0.02 0.04 0.02 0.04 c-0.02 0 -0.38 -0.66 -0.38 -1.04 c0 -0.26 -0.36 -0.64 -0.36 -1.08 l0.02 0 c0 -0.04 -0.22 -0.24 -0.22 -0.48 c-0.18 -0.42 -0.2 -0.38 -0.36 -0.38 c-0.58 1.38 -0.54 1.4 -0.72 1.74 c0 -0.04 -0.02 0.64 -0.28 0.74 l0 -0.04 c-0.02 0 -0.22 1.14 -0.42 1.32 c0 0.26 -0.44 0.6 -0.44 1.34 z M23.159 14.04 c-0.02 0 -0.04 0.02 -0.04 0.04 s0.02 0.04 0.04 0.04 s0.02 -0.02 0.02 -0.04 s0 -0.04 -0.02 -0.04 z M23.619 12.719999999999999 c-0.02 0 -0.04 0.02 -0.04 0.04 c0 0 0.02 0.02 0.04 0.02 l0 -0.06 z M24.459 11.54 l0 0.02 l0.02 0 z M24.379 11.22 c-0.02 0 -0.04 0.02 -0.04 0.04 l0.04 0 l0.02 0 c0 -0.02 0 -0.04 -0.02 -0.04 z M24.459 10.7 c-0.02 0 -0.04 0.02 -0.04 0.02 c0 0.02 0.02 0.04 0.04 0.04 c0 0 0.02 -0.02 0.02 -0.04 z M24.999000000000002 9.34 c0 -0.02 -0.02 -0.02 -0.02 -0.02 c-0.02 0 -0.02 0 -0.02 0.02 s0 0.04 0.02 0.04 c0 0 0.02 -0.02 0.02 -0.04 z M25.059 9.28 l-0.02 0 c0 0.02 0.02 0.02 0.02 0.02 s0.02 0 0.02 -0.02 l-0.02 0 z M27.239 7.880000000000001 c-0.02 0 -0.02 0.02 -0.02 0.04 s0 0.04 0.02 0.04 s0.02 -0.02 0.02 -0.04 s0 -0.04 -0.02 -0.04 z M26.859 5.1 c0 0 -0.02 0.02 -0.02 0.04 l0.04 0 c0 -0.02 0 -0.04 -0.02 -0.04 z M26.339 5.0600000000000005 c-0.02 0 -0.02 0.02 -0.02 0.04 s0 0.04 0.02 0.04 s0.02 -0.02 0.02 -0.04 s0 -0.04 -0.02 -0.04 z M26.499000000000002 5.0600000000000005 l0.08 0.04 c0.16 0 0.1 0 0.16 -0.04 l-0.06 -0.08 c-0.08 0 -0.12 0.08 -0.18 0.08 z M37.518 19.76 c0 -0.4 0.1 -0.28 0.26 -0.4 l1.5 0 c0.04 0 0.2 -0.16 0.2 -0.32 l0 -2.22 c0 -0.06 0.02 -0.14 0.02 -0.22 c0 0 -0.02 -0.16 -0.02 -0.18 c0 -0.34 0 -0.44 0.02 -0.54 c0 -1.86 -0.04 -6.22 -0.04 -10.12 c0 -0.14 -0.22 -0.14 -0.42 -0.28 c-0.06 0 -0.3 0.14 -0.44 0.14 l-0.92 0 c-0.08 -0.1 -0.24 -0.18 -0.24 -0.46 c0 -0.1 0.1 -0.28 0.78 -0.28 c0.8 0 2.28 0.06 2.62 0.06 c1.38 0 3.12 -0.04 3.84 -0.04 c2.12 0 2.7 0.44 3.18 0.54 l0.02 -0.02 c0.08 0 0.24 0.32 0.78 0.46 c0.14 0 0.7 0.64 0.76 0.66 c0 0.24 0.84 0.7 0.84 2.52 c0 0.86 -0.22 0.86 -0.24 1.16 l0 -0.02 c-0.04 0 -0.18 0.44 -0.28 0.44 c0 0 -0.18 0.46 -0.32 0.56 c-0.78 0.76 -0.6 0.4 -1.48 1.14 c-0.42 0 -0.28 0.36 -0.8 0.36 c-1.42 0.06 -1.02 0.3 -1.9 0.3 c-1 0.1 -1.34 0.18 -2.68 0.18 c0 0.02 -0.16 0.02 -0.16 0.42 l0.04 2.54 l-0.04 0.08 l0 0.3 c0 0.16 0 0.3 0.04 0.34 c0 0 -0.06 0.08 -0.06 1.22 c0 0.62 0.06 1.32 0.46 1.32 c0.22 0 0.36 -0.04 0.5 -0.04 c1.42 0 1.14 0.06 1.3 0.36 c-0.12 0.1 -0.04 0.26 -0.24 0.26 l-0.5 0 c-0.04 -0.14 -0.14 -0.14 -0.24 -0.2 c-0.04 0.02 -0.08 0.02 -0.08 0.06 l0.2 0.1 l-0.04 0.04 l-0.62 0 l-0.1 -0.04 c-0.06 0 -0.24 0.04 -0.32 0.04 l-2.28 0 c-0.04 0 -0.26 0.04 -0.32 0.04 c-0.32 0 -1.16 -0.02 -1.18 -0.08 l0 -0.02 c-0.06 0 -0.34 0.1 -0.8 0.1 c-0.54 0 -0.62 -0.12 -0.62 -0.2 c0 -0.04 0.02 -0.06 0.02 -0.06 z M38.678 19.84 c0.02 0.04 0.06 0.1 0.08 0.1 s0.06 -0.02 0.16 -0.06 c0 0 -0.08 -0.06 -0.12 -0.06 c-0.1 0 -0.08 0 -0.12 0.02 z M38.378 19.88 l0 -0.02 c-0.02 0 -0.02 0 -0.02 0.02 s0 0.04 0.02 0.04 l0 -0.04 z M39.278 19.88 c0 -0.02 -0.02 -0.02 -0.08 -0.02 c-0.04 0 -0.08 0 -0.08 0.02 s0.04 0.04 0.08 0.04 s0.08 -0.02 0.08 -0.04 z M40.418 19.84 c-0.02 0 -0.04 0.02 -0.04 0.04 s0.02 0.04 0.04 0.04 c0 0 0.02 -0.02 0.02 -0.04 s-0.02 -0.04 -0.02 -0.04 z M43.077999999999996 19.84 c-0.02 -0.02 -0.02 0.02 -0.02 0.04 c0 0 0.02 -0.02 0.02 -0.04 z M37.937999999999995 19.78 c-0.02 0 -0.04 0.02 -0.04 0.04 s0.02 0.02 0.04 0.02 s0.02 0 0.02 -0.02 s0 -0.04 -0.02 -0.04 z M37.897999999999996 19.76 c-0.02 0 -0.04 0.02 -0.04 0.04 c0 0 0.02 0.02 0.04 0.02 s0.02 -0.02 0.02 -0.02 c0 -0.02 0 -0.04 -0.02 -0.04 z M43.937999999999995 19.52 c0 0.1 0.1 0.18 0.24 0.24 c0.28 0 0.28 -0.08 0.32 -0.12 c-0.02 -0.16 -0.1 -0.16 -0.16 -0.16 c-0.02 0 -0.04 0.08 -0.06 0.12 c-0.2 0 -0.2 -0.12 -0.32 -0.12 c-0.02 0 -0.02 0.02 -0.02 0.04 z M38.018 19.52 c0 -0.02 0 -0.02 -0.02 -0.02 c0 0 -0.02 0 -0.02 0.02 s0.02 0.04 0.02 0.04 c0.02 0 0.02 -0.02 0.02 -0.04 z M39.858 19.48 c-0.02 0 -0.04 0.02 -0.04 0.04 s0.02 0.04 0.04 0.04 s0.02 -0.02 0.02 -0.04 s0 -0.04 -0.02 -0.04 z M39.738 19.44 c-0.02 0 -0.04 0.02 -0.04 0.04 l0.04 0 l0.02 0 c0 -0.02 0 -0.04 -0.02 -0.04 z M42.378 10.54 c0 1.32 -0.04 2.06 0.26 2.12 l0.78 0 c0.02 0 0.08 -0.02 0.12 -0.02 c0.64 -0.16 0.84 -0.08 1.3 -0.22 c0.9 0 0.94 -0.38 1.22 -0.46 c0.14 0 0.48 -0.58 0.58 -0.68 l-0.02 0 c0 -0.04 0.22 -0.26 0.22 -0.5 c0 -0.44 0.2 -0.24 0.2 -1.22 c0 -1.06 -0.16 -2.14 -0.16 -2.5 c0.02 -0.02 0.02 -0.04 0.02 -0.06 c0 -0.1 -0.24 -0.22 -0.24 -0.36 c0 -0.02 0.02 -0.04 0.02 -0.06 c0 -0.72 -1.74 -1 -2.02 -1 c-0.26 0 -0.62 0.02 -1.16 0.02 c-0.06 -0.04 -0.12 -0.04 -0.18 -0.04 c-0.2 0 -0.42 0.04 -0.62 0.04 l-0.08 0 c-0.08 0 -0.2 0.06 -0.24 0.46 l0 1.1 s-0.04 0.08 -0.04 0.1 c0.06 0.34 0.06 0.8 0.06 1.28 c0 0.28 -0.02 1.98 -0.02 2 z M39.638 11.86 c0 0.04 0 0.06 0.02 0.06 z M46.138 5.4399999999999995 c-0.02 0 -0.02 0.02 -0.02 0.04 s0 0.04 0.02 0.04 s0.02 -0.02 0.02 -0.04 s0 -0.04 -0.02 -0.04 z M38.358 5.359999999999999 c-0.04 0 -0.14 0.04 -0.14 0.08 l0.02 0 s0.06 0 0.06 0.02 c0.02 0 0.06 -0.02 0.06 -0.1 z M38.577999999999996 5.4 c-0.02 0 -0.02 0.02 -0.02 0.04 l0.04 0 c0 -0.02 -0.02 -0.04 -0.02 -0.04 z M39.038 5.4399999999999995 c0 -0.02 -0.04 -0.02 -0.06 -0.02 c-0.04 0 -0.06 0 -0.06 0.02 c-0.02 0 0.1 0 0.12 0 z M46.058 5.359999999999999 l0.02 0.08 s0.04 0 0.06 -0.08 l-0.08 0 z M46.018 5.279999999999999 c-0.02 0 -0.04 0.02 -0.04 0.04 s0.02 0.04 0.04 0.04 s0.02 -0.02 0.02 -0.04 s0 -0.04 -0.02 -0.04 z M37.778 5.08 c-0.08 0.06 -0.1 0.16 -0.12 0.2 c0.12 -0.06 0.12 -0.08 0.12 -0.2 z M38.297999999999995 5.140000000000001 c-0.04 0 -0.12 0.04 -0.12 0.08 c0 0.02 0.04 0.02 0.08 0.02 s0.08 0 0.1 -0.04 c0 -0.06 -0.04 -0.06 -0.06 -0.06 z M44.337999999999994 5.24 c0 -0.02 -0.02 -0.02 -0.04 -0.02 c-0.04 0 -0.06 0 -0.06 0.02 s0.02 0.02 0.06 0.02 c0.02 0 0.04 0 0.04 -0.02 z M39.358 5.16 l-0.04 0.04 l0.04 0 l0 -0.04 z M53.777 19.76 c0 -0.4 0.1 -0.28 0.26 -0.4 l1.5 0 c0.04 0 0.2 -0.16 0.2 -0.32 l0 -2.22 c0 -0.06 0.02 -0.14 0.02 -0.22 c0 0 -0.02 -0.16 -0.02 -0.18 c0 -0.34 0 -0.44 0.02 -0.54 c0 -1.86 -0.04 -6.22 -0.04 -10.12 c0 -0.14 -0.22 -0.14 -0.42 -0.28 c-0.06 0 -0.3 0.14 -0.44 0.14 l-0.92 0 c-0.08 -0.1 -0.24 -0.18 -0.24 -0.46 c0 -0.1 0.1 -0.28 0.78 -0.28 c0.8 0 2.28 0.06 2.62 0.06 c1.38 0 3.12 -0.04 3.84 -0.04 c2.12 0 2.7 0.44 3.18 0.54 l0.02 -0.02 c0.08 0 0.24 0.32 0.78 0.46 c0.14 0 0.7 0.64 0.76 0.66 c0 0.24 0.84 0.7 0.84 2.52 c0 0.86 -0.22 0.86 -0.24 1.16 l0 -0.02 c-0.04 0 -0.18 0.44 -0.28 0.44 c0 0 -0.18 0.46 -0.32 0.56 c-0.78 0.76 -0.6 0.4 -1.48 1.14 c-0.42 0 -0.28 0.36 -0.8 0.36 c-1.42 0.06 -1.02 0.3 -1.9 0.3 c-1 0.1 -1.34 0.18 -2.68 0.18 c0 0.02 -0.16 0.02 -0.16 0.42 l0.04 2.54 l-0.04 0.08 l0 0.3 c0 0.16 0 0.3 0.04 0.34 c0 0 -0.06 0.08 -0.06 1.22 c0 0.62 0.06 1.32 0.46 1.32 c0.22 0 0.36 -0.04 0.5 -0.04 c1.42 0 1.14 0.06 1.3 0.36 c-0.12 0.1 -0.04 0.26 -0.24 0.26 l-0.5 0 c-0.04 -0.14 -0.14 -0.14 -0.24 -0.2 c-0.04 0.02 -0.08 0.02 -0.08 0.06 l0.2 0.1 l-0.04 0.04 l-0.62 0 l-0.1 -0.04 c-0.06 0 -0.24 0.04 -0.32 0.04 l-2.28 0 c-0.04 0 -0.26 0.04 -0.32 0.04 c-0.32 0 -1.16 -0.02 -1.18 -0.08 l0 -0.02 c-0.06 0 -0.34 0.1 -0.8 0.1 c-0.54 0 -0.62 -0.12 -0.62 -0.2 c0 -0.04 0.02 -0.06 0.02 -0.06 z M54.937 19.84 c0.02 0.04 0.06 0.1 0.08 0.1 s0.06 -0.02 0.16 -0.06 c0 0 -0.08 -0.06 -0.12 -0.06 c-0.1 0 -0.08 0 -0.12 0.02 z M54.637 19.88 l0 -0.02 c-0.02 0 -0.02 0 -0.02 0.02 s0 0.04 0.02 0.04 l0 -0.04 z M55.537 19.88 c0 -0.02 -0.02 -0.02 -0.08 -0.02 c-0.04 0 -0.08 0 -0.08 0.02 s0.04 0.04 0.08 0.04 s0.08 -0.02 0.08 -0.04 z M56.677 19.84 c-0.02 0 -0.04 0.02 -0.04 0.04 s0.02 0.04 0.04 0.04 c0 0 0.02 -0.02 0.02 -0.04 s-0.02 -0.04 -0.02 -0.04 z M59.336999999999996 19.84 c-0.02 -0.02 -0.02 0.02 -0.02 0.04 c0 0 0.02 -0.02 0.02 -0.04 z M54.196999999999996 19.78 c-0.02 0 -0.04 0.02 -0.04 0.04 s0.02 0.02 0.04 0.02 s0.02 0 0.02 -0.02 s0 -0.04 -0.02 -0.04 z M54.157 19.76 c-0.02 0 -0.04 0.02 -0.04 0.04 c0 0 0.02 0.02 0.04 0.02 s0.02 -0.02 0.02 -0.02 c0 -0.02 0 -0.04 -0.02 -0.04 z M60.196999999999996 19.52 c0 0.1 0.1 0.18 0.24 0.24 c0.28 0 0.28 -0.08 0.32 -0.12 c-0.02 -0.16 -0.1 -0.16 -0.16 -0.16 c-0.02 0 -0.04 0.08 -0.06 0.12 c-0.2 0 -0.2 -0.12 -0.32 -0.12 c-0.02 0 -0.02 0.02 -0.02 0.04 z M54.277 19.52 c0 -0.02 0 -0.02 -0.02 -0.02 c0 0 -0.02 0 -0.02 0.02 s0.02 0.04 0.02 0.04 c0.02 0 0.02 -0.02 0.02 -0.04 z M56.117 19.48 c-0.02 0 -0.04 0.02 -0.04 0.04 s0.02 0.04 0.04 0.04 s0.02 -0.02 0.02 -0.04 s0 -0.04 -0.02 -0.04 z M55.997 19.44 c-0.02 0 -0.04 0.02 -0.04 0.04 l0.04 0 l0.02 0 c0 -0.02 0 -0.04 -0.02 -0.04 z M58.637 10.54 c0 1.32 -0.04 2.06 0.26 2.12 l0.78 0 c0.02 0 0.08 -0.02 0.12 -0.02 c0.64 -0.16 0.84 -0.08 1.3 -0.22 c0.9 0 0.94 -0.38 1.22 -0.46 c0.14 0 0.48 -0.58 0.58 -0.68 l-0.02 0 c0 -0.04 0.22 -0.26 0.22 -0.5 c0 -0.44 0.2 -0.24 0.2 -1.22 c0 -1.06 -0.16 -2.14 -0.16 -2.5 c0.02 -0.02 0.02 -0.04 0.02 -0.06 c0 -0.1 -0.24 -0.22 -0.24 -0.36 c0 -0.02 0.02 -0.04 0.02 -0.06 c0 -0.72 -1.74 -1 -2.02 -1 c-0.26 0 -0.62 0.02 -1.16 0.02 c-0.06 -0.04 -0.12 -0.04 -0.18 -0.04 c-0.2 0 -0.42 0.04 -0.62 0.04 l-0.08 0 c-0.08 0 -0.2 0.06 -0.24 0.46 l0 1.1 s-0.04 0.08 -0.04 0.1 c0.06 0.34 0.06 0.8 0.06 1.28 c0 0.28 -0.02 1.98 -0.02 2 z M55.897 11.86 c0 0.04 0 0.06 0.02 0.06 z M62.397 5.4399999999999995 c-0.02 0 -0.02 0.02 -0.02 0.04 s0 0.04 0.02 0.04 s0.02 -0.02 0.02 -0.04 s0 -0.04 -0.02 -0.04 z M54.617 5.359999999999999 c-0.04 0 -0.14 0.04 -0.14 0.08 l0.02 0 s0.06 0 0.06 0.02 c0.02 0 0.06 -0.02 0.06 -0.1 z M54.836999999999996 5.4 c-0.02 0 -0.02 0.02 -0.02 0.04 l0.04 0 c0 -0.02 -0.02 -0.04 -0.02 -0.04 z M55.297 5.4399999999999995 c0 -0.02 -0.04 -0.02 -0.06 -0.02 c-0.04 0 -0.06 0 -0.06 0.02 c-0.02 0 0.1 0 0.12 0 z M62.317 5.359999999999999 l0.02 0.08 s0.04 0 0.06 -0.08 l-0.08 0 z M62.277 5.279999999999999 c-0.02 0 -0.04 0.02 -0.04 0.04 s0.02 0.04 0.04 0.04 s0.02 -0.02 0.02 -0.04 s0 -0.04 -0.02 -0.04 z M54.037 5.08 c-0.08 0.06 -0.1 0.16 -0.12 0.2 c0.12 -0.06 0.12 -0.08 0.12 -0.2 z M54.556999999999995 5.140000000000001 c-0.04 0 -0.12 0.04 -0.12 0.08 c0 0.02 0.04 0.02 0.08 0.02 s0.08 0 0.1 -0.04 c0 -0.06 -0.04 -0.06 -0.06 -0.06 z M60.596999999999994 5.24 c0 -0.02 -0.02 -0.02 -0.04 -0.02 c-0.04 0 -0.06 0 -0.06 0.02 s0.02 0.02 0.06 0.02 c0.02 0 0.04 0 0.04 -0.02 z M55.617 5.16 l-0.04 0.04 l0.04 0 l0 -0.04 z M73.956 19.72 c0 -0.26 0.2 -0.38 0.2 -0.42 l1.66 0 c0.14 0 0.04 -0.02 0.3 -0.36 l0 -2.64 c0 -0.02 -0.04 -0.14 -0.04 -0.18 c0 -0.14 0.04 -0.16 0.04 -0.32 c0 -0.18 -0.04 -0.24 -0.04 -0.44 c0 -0.18 0.04 -0.12 0.04 -0.3 c0 -0.1 -0.06 -0.68 -0.06 -0.84 c0 -0.12 0.06 -0.22 0.06 -0.26 c-0.4 -1.02 -0.52 -1.36 -0.94 -1.88 c0 -0.3 -0.44 -0.4 -0.44 -0.78 c0.02 0 0.02 0 0.02 -0.02 s-0.7 -1.3 -0.88 -1.42 c-0.22 -0.22 -0.26 -0.28 -0.26 -0.3 s0.04 0 0.04 -0.06 c0 -0.08 -0.12 -0.36 -0.76 -1.3 c0.02 0 0.02 -0.02 0.02 -0.04 c0 -0.08 -0.36 -0.24 -0.36 -0.62 c0.02 0 0.02 -0.02 0.02 -0.02 c0 -0.12 -0.54 -0.4 -0.54 -0.78 c0 -0.3 -0.38 -0.7 -0.82 -1.16 c0 -0.32 0.32 -0.22 0.32 -0.32 c0 -0.08 -0.08 -0.08 -0.14 -0.08 c-0.04 0 -0.1 0.12 -0.16 0.12 c-0.18 0 -0.18 -0.12 -0.3 -0.12 c0 0.12 0.12 0.24 0.12 0.4 c0 0.04 -0.28 0.1 -0.4 0.1 c0 -0.02 -0.02 -0.02 -0.06 -0.02 c-0.08 0 -0.26 0.04 -0.42 0.04 c-0.2 0 -0.38 -0.06 -0.38 -0.32 c0 -0.22 0 -0.44 0.44 -0.44 c0.16 0.02 1.46 0.04 2.54 0.04 l3.14 0.02 c0.1 0 0.38 -0.02 0.44 -0.02 c0.02 0.04 0.26 0.02 0.26 0.16 c0 0.18 0.02 0.38 -0.18 0.48 c-0.46 0 -0.58 -0.04 -0.66 -0.04 c-0.08 0.1 -0.92 -0.02 -0.92 0.14 c0 0.58 0.5 0.68 0.5 1.04 c0 0.02 -0.02 0.04 -0.02 0.06 c0 0.08 0.34 0.28 0.34 0.48 c0 0.14 0.44 0.44 0.44 0.66 c0 0.4 0.54 0.72 0.54 1.02 c-0.02 0.02 -0.02 0.02 -0.02 0.04 c0 0.12 0.4 0.4 0.4 0.66 c0.06 0 0.14 0.5 0.38 0.68 c0.02 0 0.22 0.52 0.34 0.58 l-0.02 0 c0 0.04 0.2 0.24 0.2 0.38 c-0.02 0.1 0.42 0.44 0.42 0.64 c0 0.28 0.14 0.2 0.2 0.28 c0.28 0 0.4 -0.38 0.5 -0.64 c0.16 0 0.56 -1.32 0.74 -1.44 c0.08 -0.72 -0.18 0.56 0.62 -1.18 c0.18 -0.08 0.22 -0.64 0.36 -0.74 c0.02 0 0.46 -0.82 0.44 -0.78 c0 -0.32 0.68 -1 0.68 -1.38 l0.1 -0.08 c0 -0.26 0.02 -0.38 -0.1 -0.38 l-0.42 0 c-0.04 -0.02 -0.08 -0.04 -0.1 -0.08 l-0.54 0 c-0.06 0.12 -0.36 0.12 -0.52 0.12 c-0.2 0 -0.2 0.02 -0.52 -0.3 c0 -0.4 0.2 -0.3 0.32 -0.42 l1.06 0 c0.04 0 0.12 -0.04 0.14 -0.04 c0.16 0 0.28 0.04 0.4 0.08 c0.16 0 1.74 -0.08 1.8 -0.08 c0.18 0 0.26 0.04 0.4 0.04 c0.06 0 0.22 -0.04 0.32 -0.04 c0.02 0.04 0.04 0.04 0.06 0.04 c0.04 0 0.08 -0.02 0.14 -0.02 c0.1 0 0.22 0.06 0.36 0.34 c0 0.46 -0.38 0.42 -0.58 0.42 c-0.1 0 -0.52 0 -0.68 -0.1 l0.04 -0.04 c0 -0.08 -0.16 -0.08 -0.16 -0.08 c-0.32 0 -0.58 0.26 -0.84 0.66 c-0.08 0 -0.3 1.24 -0.82 1.48 c0 0.48 -0.34 0.54 -0.34 0.82 c0 0.02 0.02 0.02 0.02 0.04 c0 0.12 -0.26 0.24 -0.26 0.36 c-0.04 0.44 -0.3 0.46 -0.48 0.92 c-0.08 -0.18 -0.04 0.42 -0.18 0.46 c0.2 -0.06 -0.26 0.12 -0.26 0.4 c0.02 0 0.02 0 0.02 0.02 c0 -0.02 0 -0.02 -0.02 -0.02 c-0.04 0 -0.36 0.72 -0.46 0.78 c0 0.1 -0.16 0.28 -0.16 0.38 c0.02 0 0.02 0.02 0.02 0.04 c0 0.08 -0.36 0.32 -0.36 0.6 c-0.32 0.64 -0.32 0.6 -0.32 0.88 l0 3.42 c0 0.04 -0.06 0.18 -0.06 0.18 c0 0.02 0.02 0.08 0.06 0.18 l0 2 c0 0.22 0.08 0.3 0.26 0.3 c0.28 0 0.46 -0.04 1.22 -0.04 c0.26 0 0.52 0.02 0.64 0.14 c0 0.48 -0.1 0.44 -0.16 0.48 l0 -0.16 c-0.08 0 -0.18 -0.02 -0.18 0.08 c0 0.02 0.02 0.06 0.08 0.1 c-0.08 0 -0.18 0.06 -0.22 0.06 c-0.14 0 -0.46 -0.06 -0.68 -0.08 c-0.2 0 -0.12 0.02 -0.16 0.06 c-0.22 0 -0.38 -0.06 -0.4 -0.06 l-0.36 0 l0.04 0.02 l-0.08 0 c-0.04 0 -0.42 0.04 -0.46 0.04 c-0.74 0 -0.6 0 -0.74 -0.04 c-0.02 0 -0.16 0.04 -0.22 0.04 l-2.74 0 c-0.16 0 -0.28 0.04 -0.46 0.04 c-0.06 0 -0.44 -0.14 -0.44 -0.26 c0 -0.02 0.02 -0.04 0.04 -0.06 z M74.15599999999999 19.78 c0 0.12 0.06 0.16 0.14 0.16 l0.04 -0.02 l0 0.02 c0 -0.08 -0.02 -0.16 -0.18 -0.16 z M74.816 19.88 c0 0.06 0.02 0.06 0.04 0.06 c0.04 0 0.1 -0.08 0.12 -0.14 l-0.04 -0.04 c0 0.02 -0.12 0.02 -0.12 0.12 z M75.096 19.78 c0 0.08 0.08 0.16 0.2 0.16 c0.16 0 0.12 0 0.16 -0.02 c-0.04 -0.24 -0.02 -0.26 -0.12 -0.34 c-0.1 0 -0.24 0.18 -0.24 0.2 z M75.596 19.8 l0.02 0.04 c0.06 -0.06 0.02 -0.06 0.04 -0.06 c-0.04 0 -0.06 0 -0.06 0.02 z M79.776 19.78 l0 0.06 c0.04 0 0.06 -0.06 0.06 -0.06 l-0.06 0 z M78.816 19.8 l-0.04 -0.02 z M76.51599999999999 19.72 c-0.02 0 -0.04 0.02 -0.06 0.04 l0.06 0.02 l0 -0.06 z M74.116 19.66 l0 0.06 l0.08 0 c-0.04 -0.06 -0.06 -0.06 -0.08 -0.06 z M79.836 19.68 c-0.02 0 -0.04 0.02 -0.04 0.04 s0.02 0.04 0.04 0.04 s0.02 -0.02 0.02 -0.04 s0 -0.04 -0.02 -0.04 z M80.536 19.58 l0 0.08 c0.02 -0.02 0.04 -0.04 0.04 -0.08 l-0.04 0 z M80.776 19.62 l0.04 0.04 c0.06 -0.08 0.08 -0.1 0.08 -0.2 c-0.06 0 -0.12 0.02 -0.12 0.16 z M75.836 12.940000000000001 c-0.02 0 -0.02 0.02 -0.02 0.04 s0 0.04 0.02 0.04 s0.02 -0.02 0.02 -0.04 s0 -0.04 -0.02 -0.04 z M79.79599999999999 11.3 l0 0 c-0.02 0 -0.02 0.04 -0.02 0.04 c0.02 0 0.02 -0.02 0.02 -0.04 z M80.576 9.5 c0.02 0.06 0.04 0.12 0.06 0.14 c0 -0.08 0 -0.14 -0.06 -0.14 z M73.496 8.74 c-0.02 0 -0.04 0.02 -0.04 0.04 c0 0 0.02 0.02 0.04 0.02 s0.02 -0.02 0.02 -0.02 c0 -0.02 0 -0.04 -0.02 -0.04 z M81.79599999999999 7.380000000000001 c-0.08 0.06 -0.06 0.14 -0.06 0.16 c0.02 0 0.1 -0.06 0.1 -0.08 c0 -0.06 -0.02 -0.04 -0.04 -0.08 z M82.076 6.48 c-0.02 0 -0.04 0.02 -0.04 0.02 c0 0.02 0.02 0.02 0.04 0.02 l0 -0.04 z M82.51599999999999 6.039999999999999 c-0.02 0 -0.04 0.02 -0.04 0.02 c0 0.02 0.02 0.02 0.04 0.02 c0 0 0.02 0 0.02 -0.02 z M70.116 5.52 c-0.02 0 -0.04 0.02 -0.04 0.02 c0 0.02 0.02 0.04 0.04 0.04 s0.02 -0.02 0.02 -0.04 c0 0 0 -0.02 -0.02 -0.02 z M70.696 5.52 l0.04 0.02 c0.04 0 0.04 -0.02 0.04 -0.06 c-0.04 0 -0.06 0 -0.08 0.04 z M82.636 5.48 c0 0.02 -0.02 0.02 -0.02 0.04 s0.02 0.02 0.06 0.02 l0 -0.06 l-0.04 0 z M80.836 5.460000000000001 l0 0.02 l0.06 0 c-0.04 -0.02 -0.06 -0.02 -0.06 -0.02 z M83.876 5.460000000000001 c-0.02 0 -0.04 0.02 -0.04 0.04 c0 0 0.02 0.02 0.04 0.02 l0 -0.06 z M84.656 5.32 c-0.14 0 -0.12 0.08 -0.12 0.2 c0.08 -0.02 0.16 -0.04 0.16 -0.16 z M69.916 5.32 c0 0.04 0.08 0.1 0.1 0.14 l0 -0.08 c0 -0.04 0 -0.1 -0.02 -0.12 c-0.06 0 -0.08 0.02 -0.08 0.06 z M81.29599999999999 5.460000000000001 c0 -0.02 -0.02 -0.02 -0.02 -0.02 c-0.02 0 -0.02 0 -0.02 0.02 s0 0.02 0.02 0.02 c0 0 0.02 0 0.02 -0.02 z M70.496 5.18 c-0.02 0.02 -0.02 0.04 -0.02 0.06 c0 0.1 0.2 0.06 0.22 0.12 c0 0 0.04 0 0.06 -0.06 c-0.04 -0.04 -0.18 -0.12 -0.26 -0.12 z M80.396 5.32 c-0.02 0 -0.04 0.02 -0.04 0.02 c0 0.02 0.02 0.02 0.04 0.02 c0 0 0.02 0 0.02 -0.02 z M75.776 5.300000000000001 l0.04 0.02 l0.06 -0.02 l-0.04 -0.04 c-0.02 0 -0.04 0.02 -0.06 0.04 z M81.676 5.02 c0 0.04 0.04 0.3 0.22 0.3 c0.02 0 0.06 -0.02 0.06 -0.14 c0 -0.02 -0.22 -0.16 -0.28 -0.16 z M82.576 5.300000000000001 c-0.02 0 -0.04 0 -0.04 0.02 l0.04 0 l0.02 0 c0 -0.02 0 -0.02 -0.02 -0.02 z M76.556 5.26 l0 0 s-0.06 0 -0.06 0.04 c0.06 0 0.06 0 0.06 -0.04 z M83.876 5.18 l0 0 c-0.02 0 -0.04 0 -0.04 0.04 s0.02 0.08 0.04 0.08 l0 -0.12 z M84.116 5.300000000000001 c0 -0.02 -0.02 -0.02 -0.02 -0.02 c-0.02 0 -0.02 0 -0.02 0.02 s0 0.02 0.02 0.02 c0 0 0.02 0 0.02 -0.02 z M84.196 5.26 c-0.02 0 -0.04 0.02 -0.04 0.04 c0 0 0.02 0.02 0.04 0.02 l0.02 -0.02 c0 -0.02 -0.02 -0.04 -0.02 -0.04 z M84.196 5.220000000000001 c0.02 0.04 0.04 0.1 0.06 0.1 s0.02 -0.06 0.02 -0.1 c0 -0.02 0 -0.04 -0.02 -0.04 c-0.06 0 -0.06 0 -0.06 0.04 z M70.01599999999999 5.140000000000001 c0 0 -0.02 0.02 -0.02 0.04 l0.04 0 c0 -0.02 -0.02 -0.04 -0.02 -0.04 z M84.576 5.140000000000001 l0.02 -0.04 z"></path></g><g id="SvgjsG1106" featurekey="inlineSymbolFeature-0" transform="matrix(0.37319510155057106,0,0,0.37319510155057106,185.09814295316124,0)" fill="#111111"><defs xmlns="http://www.w3.org/2000/svg"></defs><g xmlns="http://www.w3.org/2000/svg"><path class="fil0" d="M115 43c2,0 3,-2 3,-5 0,-3 -3,-5 -6,-5 -3,0 -5,2 -5,5 0,3 1,5 3,5 -20,1 -37,10 -50,23 -10,-8 -32,-6 -33,-7 -4,-2 -7,-6 -10,-5 -2,1 -3,0 -4,0 -3,-2 -4,-12 -10,-6 1,3 0,5 -3,5 -2,9 8,4 10,5 1,0 2,1 2,3 1,3 6,4 10,6 11,6 8,16 20,22 1,1 2,2 4,2 -1,1 -1,3 -1,4 -3,-3 -8,-6 -13,-9 -7,-3 -12,-4 -15,-3 -17,15 2,37 25,34 -19,5 -44,-11 -30,-31 -19,19 12,39 30,33l0 1 120 0c3,-28 -8,-55 -32,-69 25,10 43,35 43,64 0,2 0,4 0,5l9 0c1,-3 1,-6 1,-9 15,-33 38,-69 57,-101 3,-28 -62,58 -52,74l-7 13c-2,-6 -4,-12 -7,-18 1,-5 3,-11 5,-16 7,-1 12,-4 15,-12 6,-15 9,-30 13,-45 -6,12 -11,25 -15,38 -1,3 -3,1 -3,-1 5,-13 8,-26 12,-39 -6,13 -11,24 -15,38 -1,2 -3,2 -2,-1 4,-13 8,-25 12,-39 -6,13 -12,25 -16,38 -1,1 -3,2 -2,-1 4,-13 9,-26 12,-39 -7,14 -14,28 -19,43 -3,8 0,13 4,19 -1,4 -3,8 -4,12 -13,-18 -33,-30 -56,-31zm-56 25c-1,1 -2,2 -2,3 -6,-5 -14,-8 -21,-8 8,-1 17,1 23,5zm-17 38l0 1c-1,-1 -2,-2 -5,-1 -2,0 -3,-2 -5,-1 -5,1 -8,0 -12,-1 8,-1 17,3 10,-10 3,2 3,4 4,5 5,0 4,3 6,6 0,0 1,1 2,1zm-5 -2c2,-1 -1,-5 -3,-4 -2,2 1,6 3,4z" style="fill: #de331c;"></path><path class="fil0" d="M72 130c2,3 5,6 6,9 1,4 -8,14 -6,19 2,11 -2,11 -7,18 5,2 11,6 16,8 15,-24 43,-38 64,-47 -1,-3 -3,-4 -7,-3 -11,4 -22,8 -33,13 -14,6 -19,3 -19,-5 0,-6 -3,-10 -6,-12l24 0c-2,4 -6,14 -9,19 6,-1 15,-6 22,-8 4,-9 7,-9 6,-11l9 0c-4,1 -11,8 -14,10 5,-2 10,-4 15,-6 3,-2 4,-4 3,-4l56 0c3,0 3,-6 0,-6l-159 0c-3,0 -3,6 0,6l39 0zm46 0l-9 0c0,3 -3,11 -5,14 0,1 1,0 3,-1 3,-4 7,-11 11,-13z" style="fill: #de331c;"></path><path class="fil0" d="M82 187l-21 -10 -17 17 31 0 7 -7zm-20 -7c1,0 3,1 3,2 0,1 -1,2 -2,2 -2,0 -3,-1 -3,-2 0,-1 1,-2 2,-2z" style="fill: #de331c;"></path></g></g><g id="SvgjsG1107" featurekey="nameRightFeature-0" transform="matrix(1.8825629890380424,0,0,1.8825629890380424,272.2981854539284,12.792027809472817)" fill="#111111"><path d="M12.059 19.62 l0.2 -0.28 s0.12 -0.04 0.16 -0.04 c0.56 0 0.74 0.06 1.3 0.06 c0.08 0 0.36 -0.08 0.36 -0.22 c0 -0.32 -0.04 -0.84 -0.04 -1.38 c0 -0.2 0.04 -0.66 0.04 -1.32 c0 -1.32 -0.02 -1.74 -0.02 -2.44 c0 -1.1 0.02 -1.66 0.02 -2.02 c0 -0.08 -0.02 -0.18 -0.02 -0.28 c0 -0.2 0.02 -2.84 0.02 -2.84 l0 0 c0 -0.06 -0.02 -0.66 -0.02 -0.74 c0 -0.1 0.02 -0.5 0.02 -0.58 c0 -0.04 -0.02 -0.3 -0.02 -0.64 c0.02 -0.08 0.02 -0.12 0.02 -0.22 s-0.02 -0.64 -0.02 -1 c-0.04 -0.04 -0.1 -0.12 -0.1 -0.14 c-0.06 0 -1.24 0 -1.22 0.08 c-0.02 0 -0.24 0.04 -0.24 -0.08 c0 -0.02 0 -0.04 0.04 -0.08 c0 0 -0.02 -0.06 -0.08 -0.08 c-0.12 0 -0.16 0.1 -0.16 0.2 c-0.06 0 -0.18 -0.12 -0.24 -0.2 c0 -0.56 0.4 -0.6 0.92 -0.6 l-0.04 0 c0 0.02 1.34 0.08 1.84 0.08 c0.32 0 1.02 -0.02 1.24 -0.02 c0.04 0 0.26 0.04 0.38 0.04 c0.08 0 0.2 -0.08 0.3 -0.08 c0.78 0 0.82 0.04 1.06 0.04 c0.02 -0.02 0.02 0.04 0.18 -0.04 l1.78 0 c0.08 0 0.14 0.04 0.22 0.04 c0.3 0 0.5 -0.04 1.68 -0.1 c0.06 0.04 0.82 0.1 0.92 0.1 s0.2 0.02 0.28 0.02 c0.42 0 0.48 -0.06 0.92 -0.12 c0.02 0.04 0.06 0.06 0.1 0.06 c0.02 -0.02 0.02 -0.02 0.04 -0.02 c0.14 0 0.3 0.96 0.3 1.28 c0 0.02 -0.02 0.2 -0.02 0.38 c0 0.16 0.02 0.24 0.02 0.36 c0 0.04 -0.02 0.42 -0.02 0.5 c0 0.24 0.1 1.12 0.1 1.1 c0 0.06 -0.06 0.14 -0.06 0.2 c0 0.02 0.02 0.06 0.06 0.16 c0 0.84 -0.12 0.52 -0.26 0.72 c-0.12 -0.02 -0.42 0.04 -0.52 -0.1 l0 0.02 c0.02 -0.02 -0.48 -1.24 -0.48 -1.24 c0 -0.04 -0.2 -0.3 -0.2 -0.46 l0.02 0 c0 -0.06 -0.7 -1.3 -1.02 -1.3 l0 0.02 c0.08 -0.06 -0.7 -0.72 -1.08 -0.72 c0 0.02 -0.02 0.02 -0.04 0.02 c-0.08 0 -0.32 -0.24 -1.24 -0.24 l-2.14 0 l-0.06 0.04 c0.02 0 -0.2 -0.06 -0.2 1.02 c0 0.36 0 2.06 0.04 2.42 l-0.04 2.76 c0.06 0.24 0 0.32 0.16 0.32 c1.46 0 0.86 -0.44 1.68 -0.44 c0.16 0.02 0.98 -1.24 1.02 -1.28 c0.02 -1.02 0.6 -1.06 0.64 -1.06 c0 -0.02 0.34 0.18 0.34 0.22 c0 1.9 -0.04 1.9 -0.04 2.44 c0 0.4 0.06 2.74 0.06 2.96 c-0.02 0 -0.02 0.02 -0.02 0.06 c0 0.08 0.04 0.24 0.04 0.38 c0 0.16 -0.06 0.3 -0.38 0.3 c-0.7 0 -0.22 -0.4 -1.02 -1.76 c0 0.02 -0.08 -0.34 -0.52 -0.6 l-0.02 0 c-0.06 0 -0.06 -0.28 -0.32 -0.28 c-0.64 0 -0.06 -0.34 -1.3 -0.34 c-0.32 0.08 -0.26 0.24 -0.32 0.34 l0 0.72 c0 0.02 -0.04 0.1 -0.04 0.12 c0 0.38 0.08 1.16 0.08 1.74 c0 0.04 -0.04 0.1 -0.04 0.12 l0 1.04 c0 0.04 0.04 0.14 0.04 0.16 c-0.04 0.08 -0.04 0.14 -0.04 0.2 c0 0.14 -0.02 0.2 0.04 0.26 c-0.04 0 -0.04 0.64 -0.04 0.64 c0 0.08 0 0.12 0.04 0.18 c0 0.06 0 0.08 -0.04 0.14 l0 0.9 c0.06 0.06 0.08 0.1 0.12 0.16 c1.1 0 1.26 -0.16 1.42 -0.16 l-0.02 0 c0 0.02 0.64 0.08 0.64 0.42 s-1.28 0.4 -2.12 0.4 c-0.38 0 -0.68 -0.02 -0.7 -0.02 l-3.94 0 c-0.48 0 -0.16 -0.06 -0.38 -0.38 z M12.899000000000001 19.78 c0 0.12 0 0.14 0.08 0.16 c0.12 0 0.14 -0.04 0.18 -0.06 c-0.14 -0.06 -0.18 -0.1 -0.26 -0.1 z M12.179 19.66 c0.02 0.08 0.08 0.26 0.16 0.26 l0 -0.3 c0.08 0 0.18 0.06 0.24 0.06 c0.02 0 0.02 -0.02 0.04 -0.06 c0 -0.02 0 -0.04 -0.04 -0.06 c-0.08 0 -0.4 -0.04 -0.4 0.1 z M12.459 19.92 c0 -0.02 -0.02 -0.02 -0.02 -0.02 l0 0.04 z M13.519 19.84 l0 0.08 c0.02 0 0.02 -0.02 0.02 -0.04 s0 -0.04 -0.02 -0.04 z M14.299 19.84 c0.04 0.04 0.12 0.04 0.12 0.04 l0 -0.1 c-0.06 0.02 -0.12 -0.02 -0.12 0.06 z M17.819 19.84 c0 0.04 0.04 0.06 0.06 0.06 s0.06 -0.06 0.1 -0.1 c0 -0.02 -0.02 -0.04 -0.04 -0.06 c-0.02 0 -0.12 0.04 -0.12 0.1 z M19.079 19.66 c-0.12 0 -0.08 0.06 -0.08 0.14 c0 0.04 0.12 -0.06 0.12 -0.1 z M13.158999999999999 19.58 c0.02 0.08 0.02 0.08 0.02 0.2 c0 -0.02 0.06 -0.04 0.06 -0.16 c0 -0.04 -0.02 -0.04 -0.06 -0.06 z M18.179000000000002 19.62 l0 0.04 c0.02 0 0.04 0.02 0.04 0.02 c0.06 0 0.1 -0.02 0.16 -0.06 l-0.2 0 z M13.519 19.62 l0 0.04 l0 -0.06 l0 0.02 z M18.019 19.58 c0 0.04 0.04 0.04 0.08 0.04 c0 -0.02 0 -0.06 -0.02 -0.06 z M18.919 19.5 c-0.14 0 -0.1 0.1 -0.1 0.08 c0.08 0 0.1 -0.08 0.1 -0.08 z M16.179000000000002 14.940000000000001 c-0.02 0 -0.04 0.02 -0.04 0.04 s0.02 0.04 0.04 0.04 s0.02 -0.02 0.02 -0.04 s0 -0.04 -0.02 -0.04 z M24.019 8.9 c-0.02 0 -0.02 0.02 -0.02 0.04 c0 0 0 0.02 0.02 0.02 s0.02 -0.02 0.02 -0.02 c0 -0.02 0 -0.04 -0.02 -0.04 z M21.159 5.699999999999999 l-0.04 0 c0 0.02 0 0.04 0.02 0.04 c0 0 0.02 -0.02 0.02 -0.04 z M21.099 5.68 c0 -0.02 -0.02 -0.02 -0.02 -0.02 l0 0.04 c-0.02 0 0.02 0.02 0.02 -0.02 z M20.999000000000002 5.34 c-0.02 0 -0.02 0.02 -0.02 0.04 s0 0.04 0.02 0.04 s0.02 -0.02 0.02 -0.04 s0 -0.04 -0.02 -0.04 z M18.659 5.32 c-0.02 0 -0.04 0.02 -0.04 0.02 c0 0.02 0.02 0.04 0.04 0.04 s0.02 -0.02 0.02 -0.04 c0 0 0 -0.02 -0.02 -0.02 z M12.599 5.18 c0 0 0 -0.02 -0.02 -0.02 l0 0.06 c0.02 0 0.02 -0.02 0.02 -0.04 z M18.579 5.16 c-0.02 0 -0.02 0.02 -0.02 0.04 c0 0 0 0.02 0.02 0.02 s0.02 -0.02 0.02 -0.02 c0 -0.02 0 -0.04 -0.02 -0.04 z M20.539 5.18 l-0.02 -0.02 z M18.579 5.1 c-0.02 0 -0.02 0.02 -0.02 0.04 s0 0.02 0.02 0.02 s0.02 0 0.02 -0.02 s0 -0.04 -0.02 -0.04 z M12.539 5.0600000000000005 l0 0.04 l0.04 0 z M12.279 4.98 l0 0.02 l0.16 0 z M12.499 4.98 c-0.02 0 -0.04 0 -0.04 0.02 c0 0 0.02 0.02 0.04 0.02 s0.02 -0.02 0.02 -0.02 c0 -0.02 0 -0.02 -0.02 -0.02 z M32.278 19.46 l0.04 -0.04 c0 -0.02 0 -0.02 -0.04 -0.04 l0 0 l-0.02 0 c-0.02 0 -0.04 0 -0.06 0.04 l0 -0.02 s-0.02 0.04 -0.1 0.04 s-0.2 -0.02 -0.36 -0.14 c0 0.02 -0.02 0.02 -0.02 0.02 c-0.04 0 -0.2 -0.22 -0.26 -0.22 c-0.1 0 -0.38 -0.08 -1.62 -1.32 l0 -0.08 c-0.24 -0.12 -0.5 -0.46 -0.58 -0.62 c-0.04 -0.78 -0.62 -0.22 -0.62 -1.2 c-0.02 0 -0.06 0.04 -0.06 0.04 c0.02 0 0.02 0 0.02 -0.02 c0 -0.06 -0.48 -0.42 -0.48 -0.84 c-0.12 -0.9 -0.2 -0.54 -0.2 -1.16 l-0.04 -0.04 c0 -0.2 -0.06 -0.62 -0.16 -0.8 l0.02 -1.44 l0.06 -0.82 c0.02 -0.26 0.18 -0.38 0.2 -1.18 l0 0.02 c0.02 0 0.18 -0.7 0.32 -0.84 l-0.02 0.02 c-0.02 0 0.4 -0.54 0.4 -0.68 c0 -0.16 0.52 -0.44 0.52 -0.82 c0.2 -0.18 0 -0.08 0.86 -0.92 c0.22 0 0.14 -0.36 0.36 -0.36 l-0.02 -0.04 c0.06 0 0.2 -0.12 0.42 -0.34 c0.64 -0.42 -0.4 0.04 1.7 -0.94 c0 0 0.02 0.02 0.04 0.02 c0.22 0 0.68 -0.3 1 -0.3 c0.44 0 1.8 -0.08 1.98 -0.08 c0.7 0 0.9 0.26 1.1 0.26 c0.74 0.06 0.94 0.58 1.22 0.58 c0.02 0 0.02 -0.02 0.08 -0.02 c0.08 0 0.26 0.08 0.74 0.56 c0 0.14 0.24 0.14 0.32 0.26 l-0.04 0.04 c0.1 0.04 0.48 0.32 0.64 0.64 c0 0.06 0.36 0.18 0.36 0.38 c-0.02 0 -0.02 0 -0.02 0.02 c0 0.06 0.5 0.4 0.5 0.62 c-0.02 0 -0.04 0 -0.04 0.02 c0 0.06 0.4 0.3 0.4 0.6 c0.06 0.54 0.52 0.7 0.52 1.16 c-0.02 0.02 -0.02 0.04 -0.02 0.06 c0 0.16 0.34 0.46 0.34 1.1 c0 0.8 0.16 1.36 0.16 1.48 c0 0.34 -0.2 0.94 -0.2 1.68 c-0.16 0.9 -0.92 2.58 -1.12 2.72 c-0.04 0 -0.24 0.5 -0.42 0.58 c0 -0.02 -0.7 1.04 -1.16 1.22 c-0.3 0.2 -0.18 0.26 -1.22 0.98 c-0.04 0.06 -0.4 0.02 -0.6 0.2 c-1.72 0.58 -1.68 0.46 -1.8 0.58 l-1.38 0 c-0.06 0 -0.24 -0.1 -0.34 -0.1 c-0.04 0 -0.5 -0.26 -0.8 -0.26 c-0.4 0 -0.32 -0.24 -0.5 -0.26 z M34.757999999999996 19.88 c0 0 -0.02 0.02 -0.02 0.04 l0.02 0.02 c0.02 0 0.02 -0.02 0.02 -0.02 c0 -0.02 0 -0.04 -0.02 -0.04 z M35.338 19.88 c0 0.02 -0.02 0.02 -0.02 0.02 c0 0.02 0.02 0.02 0.06 0.04 l0.04 -0.06 l-0.08 0 z M35.477999999999994 19.84 c-0.02 0 -0.04 0.02 -0.04 0.04 s0.02 0.04 0.04 0.04 l0 -0.08 z M33.378 19.78 c0 -0.02 -0.02 -0.02 -0.02 -0.02 c-0.02 0 -0.02 0 -0.02 0.02 s0 0.04 0.02 0.04 c0 0 0.02 -0.02 0.02 -0.04 z M33.318 19.72 c-0.02 0 -0.04 0.02 -0.04 0.02 c0 0.02 0.02 0.04 0.04 0.04 l0 -0.06 z M34.757999999999996 19.72 l-0.02 0.02 l0.04 0 s0 -0.02 -0.02 -0.02 z M35.298 19.7 c0 0 -0.02 0.02 -0.02 0.04 l0.04 0 c0 -0.02 0 -0.04 -0.02 -0.04 z M34.038 19.66 c-0.02 0 -0.04 0.02 -0.04 0.04 c0 0 0.02 0.02 0.04 0.02 l0 -0.06 z M35.378 19.66 c-0.02 0 -0.04 0.02 -0.04 0.04 c0 0 0.02 0.02 0.04 0.02 s0.02 -0.02 0.02 -0.02 c0 -0.02 0 -0.04 -0.02 -0.04 z M36.117999999999995 19.5 c-0.02 0 -0.04 0.02 -0.04 0.04 c0 0 0.02 0.02 0.04 0.02 s0.02 -0.02 0.02 -0.02 c0 -0.02 0 -0.04 -0.02 -0.04 z M31.177999999999997 16.36 c0.06 0.2 0.14 0.3 0.14 0.56 c0 0.3 0.32 0.56 0.32 0.94 c0.26 0.4 -0.18 -0.04 0.8 0.96 c0.02 0 0.02 -0.02 0.02 -0.02 c0.06 0 0 0.24 0.44 0.24 c-0.02 0 0.5 0.34 1.18 0.34 l0.78 0 c0.88 0 1.58 -0.06 2.24 -0.72 c-0.02 0 0.5 -0.38 0.54 -0.58 c0 0.02 0 0.04 0.02 0.04 c0.08 0 0.46 -0.96 0.46 -1.32 c0 -1.78 0.32 -2.84 0.32 -3.12 c0 -0.06 -0.04 -0.26 -0.04 -0.46 c0 -0.62 0.04 -0.84 0.04 -1.1 c0 -0.06 -0.08 -0.66 -0.08 -0.7 c0 0 -0.02 0 -0.02 -0.02 c0 -0.06 0.08 -0.26 0.08 -0.82 c0 -0.06 -0.08 -0.2 -0.08 -0.66 c0 -1.68 -0.3 -2.18 -0.34 -2.82 l-0.02 0.02 c-0.06 0 0.04 -0.38 -0.22 -0.64 c-0.58 -0.58 -0.56 -0.78 -0.66 -0.82 c-0.04 0 -0.28 -0.24 -0.32 -0.24 c0 0.02 0 0.06 -0.02 0.06 c-0.08 0 -0.54 -0.48 -1.04 -0.48 c-0.46 0 -0.8 -0.12 -1.14 -0.12 c-0.74 0 -1.42 0.5 -1.84 0.5 c-0.34 0.08 -0.6 0.36 -0.9 0.88 c-0.02 0.04 -0.46 0.36 -0.46 0.96 c0 0.02 0.02 0.02 0.02 0.04 c0 0.08 -0.22 0.2 -0.22 1.02 c-0.04 1.14 -0.2 -0.38 -0.2 2.72 l0 1.9 c0 0.64 0.04 0.98 0.04 2.02 l0.04 0.06 c0 0.28 0.04 0.8 0.12 0.8 l0 0.58 z M37.498 19.2 l0 0.02 l0.04 0 z M31.298 18.84 c-0.02 0 -0.04 0.02 -0.04 0.02 c0 0.02 0.02 0.02 0.04 0.02 c0 0 0.02 0 0.02 -0.02 z M31.258 18.78 c-0.02 0 -0.04 0.02 -0.04 0.04 s0.02 0.02 0.04 0.02 s0.02 0 0.02 -0.02 s0 -0.04 -0.02 -0.04 z M31.418 18.24 l0 0.04 l0.04 0 l0 -0.04 l-0.04 0 z M29.738 17.46 c0.02 0.02 -0.02 0.04 0.06 0.04 c-0.02 -0.04 -0.06 -0.04 -0.06 -0.04 z M28.938 16.36 c-0.02 0 -0.04 0.02 -0.04 0.04 s0.02 0.04 0.04 0.04 s0.02 -0.02 0.02 -0.04 s0 -0.04 -0.02 -0.04 z M27.878 12.54 c0.02 0.02 0.02 0.04 0.04 0.04 l0.02 -0.02 z M39.617999999999995 7.16 l0 -0.02 c-0.02 0 -0.02 0 -0.02 0.02 s0 0.02 0.02 0.02 l0 -0.02 z M38.717999999999996 6.119999999999999 c0 0 -0.02 0.02 -0.02 0.04 s0.02 0.04 0.02 0.04 c0.02 0 0.02 -0.02 0.02 -0.04 s0 -0.04 -0.02 -0.04 z M31.418 5.58 c-0.06 0 -0.08 0 -0.12 0.04 l0.12 0 l0 -0.04 z M32.238 5.16 l-0.02 0 c0 0.02 0 0.04 0.02 0.04 l0 -0.04 z M36.018 4.84 c-0.08 0 -0.2 0.02 -0.26 0.04 l0 0.02 c0.06 0 0.26 0.02 0.26 -0.04 l0 -0.02 z M34.077999999999996 4.74 l-0.02 0.02 c0 0.02 0.06 0.04 0.1 0.04 l0 -0.16 c-0.08 0 -0.08 0.04 -0.08 0.1 z M36.318 4.779999999999999 c-0.02 0 -0.04 0.02 -0.04 0.02 c0 0.02 0.02 0.04 0.04 0.04 c0 0 0.02 -0.02 0.02 -0.04 z M33.378 4.779999999999999 c0 -0.02 -0.04 -0.02 -0.06 -0.02 s-0.06 0 -0.06 0.02 s0.02 0.02 0.06 0.02 c0 0 0.04 0 0.06 -0.02 z M33.538 4.74 l0 0.04 l0.06 0 l0 -0.04 l-0.06 0 z M34.538 4.619999999999999 c-0.02 0 -0.14 0.08 -0.22 0.12 l0.02 0.02 c0.08 0 0.2 -0.08 0.2 -0.14 z M35.438 4.619999999999999 l0 0.06 l0.04 0 l0 -0.06 l-0.04 0 z M49.957 19.46 l0.04 -0.04 c0 -0.02 0 -0.02 -0.04 -0.04 l0 0 l-0.02 0 c-0.02 0 -0.04 0 -0.06 0.04 l0 -0.02 s-0.02 0.04 -0.1 0.04 s-0.2 -0.02 -0.36 -0.14 c0 0.02 -0.02 0.02 -0.02 0.02 c-0.04 0 -0.2 -0.22 -0.26 -0.22 c-0.1 0 -0.38 -0.08 -1.62 -1.32 l0 -0.08 c-0.24 -0.12 -0.5 -0.46 -0.58 -0.62 c-0.04 -0.78 -0.62 -0.22 -0.62 -1.2 c-0.02 0 -0.06 0.04 -0.06 0.04 c0.02 0 0.02 0 0.02 -0.02 c0 -0.06 -0.48 -0.42 -0.48 -0.84 c-0.12 -0.9 -0.2 -0.54 -0.2 -1.16 l-0.04 -0.04 c0 -0.2 -0.06 -0.62 -0.16 -0.8 l0.02 -1.44 l0.06 -0.82 c0.02 -0.26 0.18 -0.38 0.2 -1.18 l0 0.02 c0.02 0 0.18 -0.7 0.32 -0.84 l-0.02 0.02 c-0.02 0 0.4 -0.54 0.4 -0.68 c0 -0.16 0.52 -0.44 0.52 -0.82 c0.2 -0.18 0 -0.08 0.86 -0.92 c0.22 0 0.14 -0.36 0.36 -0.36 l-0.02 -0.04 c0.06 0 0.2 -0.12 0.42 -0.34 c0.64 -0.42 -0.4 0.04 1.7 -0.94 c0 0 0.02 0.02 0.04 0.02 c0.22 0 0.68 -0.3 1 -0.3 c0.44 0 1.8 -0.08 1.98 -0.08 c0.7 0 0.9 0.26 1.1 0.26 c0.74 0.06 0.94 0.58 1.22 0.58 c0.02 0 0.02 -0.02 0.08 -0.02 c0.08 0 0.26 0.08 0.74 0.56 c0 0.14 0.24 0.14 0.32 0.26 l-0.04 0.04 c0.1 0.04 0.48 0.32 0.64 0.64 c0 0.06 0.36 0.18 0.36 0.38 c-0.02 0 -0.02 0 -0.02 0.02 c0 0.06 0.5 0.4 0.5 0.62 c-0.02 0 -0.04 0 -0.04 0.02 c0 0.06 0.4 0.3 0.4 0.6 c0.06 0.54 0.52 0.7 0.52 1.16 c-0.02 0.02 -0.02 0.04 -0.02 0.06 c0 0.16 0.34 0.46 0.34 1.1 c0 0.8 0.16 1.36 0.16 1.48 c0 0.34 -0.2 0.94 -0.2 1.68 c-0.16 0.9 -0.92 2.58 -1.12 2.72 c-0.04 0 -0.24 0.5 -0.42 0.58 c0 -0.02 -0.7 1.04 -1.16 1.22 c-0.3 0.2 -0.18 0.26 -1.22 0.98 c-0.04 0.06 -0.4 0.02 -0.6 0.2 c-1.72 0.58 -1.68 0.46 -1.8 0.58 l-1.38 0 c-0.06 0 -0.24 -0.1 -0.34 -0.1 c-0.04 0 -0.5 -0.26 -0.8 -0.26 c-0.4 0 -0.32 -0.24 -0.5 -0.26 z M52.437 19.88 c0 0 -0.02 0.02 -0.02 0.04 l0.02 0.02 c0.02 0 0.02 -0.02 0.02 -0.02 c0 -0.02 0 -0.04 -0.02 -0.04 z M53.017 19.88 c0 0.02 -0.02 0.02 -0.02 0.02 c0 0.02 0.02 0.02 0.06 0.04 l0.04 -0.06 l-0.08 0 z M53.157 19.84 c-0.02 0 -0.04 0.02 -0.04 0.04 s0.02 0.04 0.04 0.04 l0 -0.08 z M51.057 19.78 c0 -0.02 -0.02 -0.02 -0.02 -0.02 c-0.02 0 -0.02 0 -0.02 0.02 s0 0.04 0.02 0.04 c0 0 0.02 -0.02 0.02 -0.04 z M50.997 19.72 c-0.02 0 -0.04 0.02 -0.04 0.02 c0 0.02 0.02 0.04 0.04 0.04 l0 -0.06 z M52.437 19.72 l-0.02 0.02 l0.04 0 s0 -0.02 -0.02 -0.02 z M52.977000000000004 19.7 c0 0 -0.02 0.02 -0.02 0.04 l0.04 0 c0 -0.02 0 -0.04 -0.02 -0.04 z M51.717 19.66 c-0.02 0 -0.04 0.02 -0.04 0.04 c0 0 0.02 0.02 0.04 0.02 l0 -0.06 z M53.057 19.66 c-0.02 0 -0.04 0.02 -0.04 0.04 c0 0 0.02 0.02 0.04 0.02 s0.02 -0.02 0.02 -0.02 c0 -0.02 0 -0.04 -0.02 -0.04 z M53.797 19.5 c-0.02 0 -0.04 0.02 -0.04 0.04 c0 0 0.02 0.02 0.04 0.02 s0.02 -0.02 0.02 -0.02 c0 -0.02 0 -0.04 -0.02 -0.04 z M48.857 16.36 c0.06 0.2 0.14 0.3 0.14 0.56 c0 0.3 0.32 0.56 0.32 0.94 c0.26 0.4 -0.18 -0.04 0.8 0.96 c0.02 0 0.02 -0.02 0.02 -0.02 c0.06 0 0 0.24 0.44 0.24 c-0.02 0 0.5 0.34 1.18 0.34 l0.78 0 c0.88 0 1.58 -0.06 2.24 -0.72 c-0.02 0 0.5 -0.38 0.54 -0.58 c0 0.02 0 0.04 0.02 0.04 c0.08 0 0.46 -0.96 0.46 -1.32 c0 -1.78 0.32 -2.84 0.32 -3.12 c0 -0.06 -0.04 -0.26 -0.04 -0.46 c0 -0.62 0.04 -0.84 0.04 -1.1 c0 -0.06 -0.08 -0.66 -0.08 -0.7 c0 0 -0.02 0 -0.02 -0.02 c0 -0.06 0.08 -0.26 0.08 -0.82 c0 -0.06 -0.08 -0.2 -0.08 -0.66 c0 -1.68 -0.3 -2.18 -0.34 -2.82 l-0.02 0.02 c-0.06 0 0.04 -0.38 -0.22 -0.64 c-0.58 -0.58 -0.56 -0.78 -0.66 -0.82 c-0.04 0 -0.28 -0.24 -0.32 -0.24 c0 0.02 0 0.06 -0.02 0.06 c-0.08 0 -0.54 -0.48 -1.04 -0.48 c-0.46 0 -0.8 -0.12 -1.14 -0.12 c-0.74 0 -1.42 0.5 -1.84 0.5 c-0.34 0.08 -0.6 0.36 -0.9 0.88 c-0.02 0.04 -0.46 0.36 -0.46 0.96 c0 0.02 0.02 0.02 0.02 0.04 c0 0.08 -0.22 0.2 -0.22 1.02 c-0.04 1.14 -0.2 -0.38 -0.2 2.72 l0 1.9 c0 0.64 0.04 0.98 0.04 2.02 l0.04 0.06 c0 0.28 0.04 0.8 0.12 0.8 l0 0.58 z M55.177 19.2 l0 0.02 l0.04 0 z M48.977000000000004 18.84 c-0.02 0 -0.04 0.02 -0.04 0.02 c0 0.02 0.02 0.02 0.04 0.02 c0 0 0.02 0 0.02 -0.02 z M48.937 18.78 c-0.02 0 -0.04 0.02 -0.04 0.04 s0.02 0.02 0.04 0.02 s0.02 0 0.02 -0.02 s0 -0.04 -0.02 -0.04 z M49.097 18.24 l0 0.04 l0.04 0 l0 -0.04 l-0.04 0 z M47.417 17.46 c0.02 0.02 -0.02 0.04 0.06 0.04 c-0.02 -0.04 -0.06 -0.04 -0.06 -0.04 z M46.617 16.36 c-0.02 0 -0.04 0.02 -0.04 0.04 s0.02 0.04 0.04 0.04 s0.02 -0.02 0.02 -0.04 s0 -0.04 -0.02 -0.04 z M45.557 12.54 c0.02 0.02 0.02 0.04 0.04 0.04 l0.02 -0.02 z M57.297 7.16 l0 -0.02 c-0.02 0 -0.02 0 -0.02 0.02 s0 0.02 0.02 0.02 l0 -0.02 z M56.397 6.119999999999999 c0 0 -0.02 0.02 -0.02 0.04 s0.02 0.04 0.02 0.04 c0.02 0 0.02 -0.02 0.02 -0.04 s0 -0.04 -0.02 -0.04 z M49.097 5.58 c-0.06 0 -0.08 0 -0.12 0.04 l0.12 0 l0 -0.04 z M49.917 5.16 l-0.02 0 c0 0.02 0 0.04 0.02 0.04 l0 -0.04 z M53.697 4.84 c-0.08 0 -0.2 0.02 -0.26 0.04 l0 0.02 c0.06 0 0.26 0.02 0.26 -0.04 l0 -0.02 z M51.757 4.74 l-0.02 0.02 c0 0.02 0.06 0.04 0.1 0.04 l0 -0.16 c-0.08 0 -0.08 0.04 -0.08 0.1 z M53.997 4.779999999999999 c-0.02 0 -0.04 0.02 -0.04 0.02 c0 0.02 0.02 0.04 0.04 0.04 c0 0 0.02 -0.02 0.02 -0.04 z M51.057 4.779999999999999 c0 -0.02 -0.04 -0.02 -0.06 -0.02 s-0.06 0 -0.06 0.02 s0.02 0.02 0.06 0.02 c0 0 0.04 0 0.06 -0.02 z M51.217 4.74 l0 0.04 l0.06 0 l0 -0.04 l-0.06 0 z M52.217 4.619999999999999 c-0.02 0 -0.14 0.08 -0.22 0.12 l0.02 0.02 c0.08 0 0.2 -0.08 0.2 -0.14 z M53.117000000000004 4.619999999999999 l0 0.06 l0.04 0 l0 -0.06 l-0.04 0 z M63.096000000000004 19.68 c0 -0.26 0.1 -0.14 0.22 -0.22 c0.14 0 0.38 0.02 0.64 0.02 c0.52 0 1.14 -0.06 1.2 -0.44 c0 -0.38 -0.06 -0.34 -0.06 -0.84 c0 -0.18 0.02 -1.7 0.02 -1.9 c0 -0.26 -0.02 -0.72 -0.02 -1.22 l0 -6.48 c0 -0.02 0.02 -0.2 0.02 -0.22 s-0.02 -0.06 -0.02 -0.28 l0 -2.08 c-0.04 -0.12 -0.04 -0.42 -0.16 -0.42 c-0.54 0 -1.4 0.06 -1.48 0.06 c-0.16 0 -0.38 -0.04 -0.38 -0.28 c0 -0.46 0.22 -0.44 0.28 -0.5 l1.16 0.02 s0.36 0.02 0.48 0.02 c0.06 0 0.18 -0.02 0.4 -0.02 l1.86 0 c0.04 0 0.14 -0.04 0.18 -0.04 s0.14 0.04 0.24 0.04 l3.14 -0.02 c0.18 0.02 0.66 0.16 1.2 0.16 c-0.02 0 -0.02 -0.02 -0.02 -0.02 c0.04 0 0.38 0.22 0.74 0.22 c0.06 0 0.78 0.02 0.78 0.3 c0 -0.02 0 -0.04 0.06 -0.04 c0.1 0 0.4 0.1 1.18 0.6 l0 0.04 c0.04 0.16 0.64 0.38 0.88 0.72 c0.02 0.24 0.7 0.72 0.7 0.88 c-0.02 0.02 -0.02 0.02 -0.02 0.04 l0 -0.02 c0.06 0 0.5 0.78 0.76 1.56 c-0.02 0 -0.02 0.02 -0.02 0.02 c0 0.12 0.46 0.74 0.46 1.68 c0.06 0.32 0.12 1.68 0.12 1.9 c0 0.14 -0.08 0.48 -0.08 0.74 c0 0 -0.16 0.76 -0.16 0.84 l-0.02 -0.02 c-0.06 0 0 0.74 -0.24 0.98 c-0.1 0 0.08 0.44 -0.32 0.84 c-0.06 0.04 -0.16 0.16 -0.16 0.42 c-0.72 1.24 -0.72 0.76 -0.98 1.3 c0 0.14 -0.16 0.12 -0.28 0.2 c-0.32 0.54 -0.88 0.76 -1.76 1.2 c-0.3 0 -0.84 0.38 -1.34 0.42 c0 0.02 -2.22 0.16 -3.24 0.16 c-0.24 0 -0.5 -0.02 -0.74 -0.02 c-0.12 0 -2.58 0.02 -3.5 0.04 c-0.08 0 -0.3 -0.02 -0.62 -0.02 c-0.34 0 -0.38 0.1 -0.76 0.1 c-0.18 -0.02 -0.34 -0.12 -0.34 -0.42 z M63.316 19.9 c0.1 0.04 0.16 0.04 0.2 0.04 c0.12 0 0.1 0 0.12 -0.04 l-0.32 0 z M64.196 19.94 c0 -0.02 -0.02 -0.02 -0.02 -0.02 c-0.02 0 -0.02 0 -0.02 0.02 s0 0.04 0.02 0.04 c0 0 0.02 -0.02 0.02 -0.04 z M64.456 19.9 c-0.02 0 -0.04 0.02 -0.04 0.04 s0.02 0.04 0.04 0.04 s0.02 -0.02 0.02 -0.04 s0 -0.04 -0.02 -0.04 z M69.676 19.86 c-0.02 0 -0.04 0.02 -0.04 0.04 s0.02 0.04 0.04 0.04 s0.02 -0.02 0.02 -0.04 s0 -0.04 -0.02 -0.04 z M69.99600000000001 19.9 c0 -0.02 -0.02 -0.02 -0.02 -0.02 c-0.02 0 -0.02 0 -0.02 0.02 s0 0.04 0.02 0.04 c0 0 0.02 -0.02 0.02 -0.04 z M63.676 19.62 c-0.06 0.02 -0.06 0.08 -0.06 0.12 c0.04 -0.02 0.06 -0.08 0.06 -0.12 z M63.296 19.58 c0 0.06 0.02 0.06 0.1 0.1 l-0.02 0.02 c0.04 0 0.16 -0.08 0.14 -0.14 c-0.06 0 -0.22 0 -0.22 0.02 l0 0 z M63.616 19.58 c-0.02 0 -0.02 0.02 -0.02 0.04 s0 0.02 0.02 0.02 l0 -0.06 z M68.056 18.64 c0.06 0.46 0.04 0.78 0.26 0.78 l1.36 0 c0.04 0 0.08 -0.02 0.12 -0.02 c0 0 0.14 0.02 0.26 0.02 c0.3 0 0.74 -0.02 0.9 -0.1 c-0.16 -0.12 0.18 0.16 0.6 -0.16 c0.94 -0.06 0.58 -0.2 0.94 -0.38 c0.06 0 0.48 -0.24 0.56 -0.42 c0 -0.16 0.32 -0.24 0.34 -0.32 c-0.02 -0.02 -0.04 -0.04 -0.04 -0.06 c0 -0.12 0.34 -0.2 0.34 -0.52 c-0.02 -0.02 -0.02 -0.02 -0.02 -0.04 c0 -0.08 0.2 -0.14 0.2 -0.5 l0 0.02 c0.06 0 0.46 -1.64 0.46 -2.48 c0 -0.02 -0.02 -0.32 -0.02 -0.64 s0.02 -0.64 0.1 -0.7 c0 -0.04 -0.04 -0.24 -0.04 -0.28 c0 0 0.04 -0.4 0.04 -0.44 c0 -5.4 -1.38 -5.74 -1.92 -6.3 c-0.4 0 -0.48 -0.36 -1.06 -0.36 c-1.08 -0.06 -1.6 -0.14 -3.14 -0.14 c-0.3 0.76 -0.04 1.54 -0.26 1.96 c0 0.04 0.06 0.14 0.06 0.62 c0 0.24 0 0.22 -0.04 0.3 l0 1.06 c0 0.02 0.04 0.16 0.04 0.2 c-0.02 0.02 -0.04 0.08 -0.04 0.08 c0 0.04 0.04 0.28 0.04 0.44 l-0.04 0.04 c0 0.02 0.04 0.2 0.04 0.26 l0 2.32 c0 0.04 0.02 0.2 0.02 0.24 c0 0.32 -0.06 1.24 -0.06 1.92 c0 0.16 0.04 0.3 0.04 0.36 c0 0.2 -0.04 0.44 -0.04 0.64 c0 0.26 0.02 0.78 0.06 0.78 c0 0.02 -0.02 0.34 -0.02 0.38 c0 0.02 -0.02 0.02 -0.02 0.04 s0.04 0.08 0.04 0.2 c0 0.04 0 0.24 -0.06 1.2 z M65.276 18.56 c-0.02 0 -0.02 0 -0.02 0.02 s0 0.04 0.02 0.04 s0.02 -0.02 0.02 -0.04 s0 -0.02 -0.02 -0.02 z M74.736 15.440000000000001 l0 0.02 l0.02 0 z M67.396 9.7 l-0.04 0.04 l0.04 0 l0 -0.04 z M65.276 8.06 c-0.04 0.08 -0.02 0.24 -0.02 0.32 z M65.35600000000001 7.960000000000001 c-0.02 0 -0.04 0.02 -0.04 0.04 c0 0 0.02 0.02 0.04 0.02 s0.02 -0.02 0.02 -0.02 c0 -0.02 0 -0.04 -0.02 -0.04 z M74.456 6.76 l-0.02 -0.02 c-0.02 0 -0.02 0.02 -0.02 0.02 c0 0.02 0 0.04 0.02 0.04 c0 0 0.02 -0.02 0.02 -0.04 z M74.596 6.76 c0 0 -0.02 -0.02 -0.04 -0.02 l-0.02 0.02 c0 0.02 0.02 0.04 0.02 0.04 c0.02 0 0.04 -0.02 0.04 -0.04 z M71.516 5.279999999999999 c0 0.08 0.04 0.1 0.06 0.1 s0.02 -0.02 0.02 -0.02 c0 -0.06 -0.08 -0.12 -0.16 -0.12 c-0.04 0.02 -0.16 -0.02 -0.2 0.04 l0.28 0 z M64.296 5.24 c-0.02 0 -0.04 0.02 -0.04 0.04 s0.02 0.04 0.04 0.04 s0.02 -0.02 0.02 -0.04 s0 -0.04 -0.02 -0.04 z M68.456 5.24 c-0.06 0 -0.06 0.02 -0.08 0.04 l0.08 -0.04 l0 0 z M70.636 5.24 l-0.22 0 l0 0.04 c0.1 0 0.28 0.02 0.32 -0.04 l-0.1 0 z M70.896 5.24 c0 -0.02 -0.02 -0.02 -0.02 -0.02 c-0.02 0 -0.02 0 -0.02 0.02 l0.04 0 z M83.41499999999999 19.42 c-0.18 0 -0.28 0.04 -0.4 0.06 c-0.18 0 -0.14 0 -0.16 -0.02 l-0.06 0.02 c0 0.06 0.02 0.06 0.06 0.08 c0 -0.02 -0.06 0.04 -0.1 0.12 l0.02 0 c0 0.02 -0.64 0.52 -0.74 0.52 c-0.46 0 -0.46 -0.54 -0.46 -0.62 c0 -0.04 0 -0.04 0.02 -0.1 c0 -2.24 -0.1 -1.9 -0.1 -3.24 c0 0 0.02 -0.02 0.02 -0.04 c0 -0.06 -0.04 -0.16 -0.04 -0.26 c0 -0.18 0.08 -0.3 0.6 -0.3 c0.06 0 0.14 0.06 0.32 0.38 c0 0.1 0.36 0.4 0.4 0.58 c-0.02 0.02 -0.04 0.04 -0.04 0.06 c0 0.08 0.3 0.2 0.3 0.32 c0 0.02 -0.02 0.04 -0.02 0.04 c0 0.12 0.2 0.22 0.2 0.28 c0.24 0.44 0.26 0.42 0.58 0.74 c0.1 0 0.84 1.32 1.4 1.32 c0.72 0.06 0.86 0.32 1.62 0.32 c0.42 0 0.36 -0.02 0.5 -0.1 c-0.04 0.04 -0.02 0.04 -0.04 0.04 c0 0 0.14 -0.2 0.8 -0.2 c0.3 0 0.88 -0.56 1 -0.64 c0.04 -0.04 0.24 -0.12 0.24 -0.16 c0 -0.12 0.42 -0.7 0.48 -0.76 c-0.02 -0.04 -0.02 -0.08 -0.02 -0.1 c0 -0.3 0.32 0.16 0.32 -1.7 c-0.02 -0.06 -0.08 -0.7 -0.22 -0.82 c-0.06 0 -0.06 -0.46 -0.54 -0.78 c0 -0.02 0.02 -0.12 0.02 -0.16 c-0.78 -0.04 -0.38 -0.44 -0.9 -0.44 c-0.98 0 -0.2 -0.3 -1.26 -0.3 c-0.1 -0.1 -0.98 -0.08 -1.18 -0.2 c-0.04 0 -0.18 0.04 -0.22 0.04 c-0.24 0 -0.04 -0.2 -0.58 -0.2 c-1.82 -0.1 -0.84 -0.44 -1.46 -0.44 l0 -0.04 c0.06 0 0.14 -0.02 0.2 0.04 c0 0 0.1 -0.04 0.1 -0.06 c0 0 -0.04 -0.04 -0.04 -0.06 l-0.62 0 c-0.2 -0.18 -0.18 -0.3 -0.34 -0.34 c0 -0.02 -0.22 0.02 -0.56 -0.44 c0 -0.14 -0.44 -0.66 -0.54 -0.74 c-0.18 -0.94 -0.4 -1.5 -0.4 -2.22 c0.04 -0.22 0 -0.5 0.08 -0.64 l0 0.02 c0.02 0 0.1 -0.68 0.16 -0.64 c-0.02 0 -0.04 -0.02 -0.04 -0.04 c0 -0.16 0.42 -0.6 0.42 -0.76 c-0.02 -0.02 -0.02 -0.04 -0.02 -0.04 c0 -0.14 0.32 -0.28 0.32 -0.34 s0.26 -0.48 0.38 -0.56 c-0.02 0.02 -0.02 0.04 -0.02 0.04 c-0.02 0 0.98 -0.66 1 -0.68 c1.22 -0.2 0.16 -0.54 1.52 -0.54 l1.96 0 c0.04 0 0.46 0 0.66 0.16 c0.82 0.04 0.68 0.52 1.04 0.52 c0.66 0 0.48 -0.04 0.68 -0.24 c-0.08 -0.1 0.54 -0.02 0.6 -0.28 l0.26 0 c0.04 0 0.2 0.16 0.22 0.2 c0.06 2.48 0.18 2.42 0.18 3.72 c0 0.1 -0.18 0.16 -0.26 0.32 l-0.28 0 l0 -0.08 c-0.06 0 -0.48 -0.28 -0.48 -0.5 l0 0.02 c-0.02 0 -0.16 -0.5 -0.38 -0.58 l0.02 0 c0 -0.06 -0.26 -0.26 -0.26 -0.4 c-0.3 -0.44 -0.26 -0.42 -0.5 -0.66 l0.02 0 c0 -0.02 -0.5 -0.32 -0.5 -0.46 c0 -0.3 -0.74 -0.66 -0.9 -0.82 c0.06 -0.12 -0.52 -0.28 -1.1 -0.28 c-0.02 0 -0.04 0.02 -0.06 0.02 c-0.2 0 -0.12 -0.34 -0.18 -0.34 c-0.04 0.04 -0.06 0.04 -0.08 0.08 c-0.02 0 -0.1 -0.02 -0.16 -0.04 c-0.12 0.44 -0.32 0.2 -0.38 0.32 c-0.12 -0.06 -0.04 -0.12 -0.12 -0.14 c-0.42 0.2 -0.3 0.18 -1.22 0.64 c-0.6 1.18 -0.28 -0.28 -0.94 1.52 l0 0.88 l0 -0.02 c0.02 0 0.1 0.78 0.28 0.88 c0.04 0.06 0.3 0.26 0.38 0.42 c0.14 0 0.32 0.52 0.9 0.52 c0.24 0.26 1.18 0.2 2.14 0.44 c0.28 0.08 1.74 0.08 2.08 0.48 l-0.02 0 c0 0.04 0.48 0.08 0.56 0.14 c0 -0.04 0.96 0.56 0.96 0.68 c0 0.02 0 0.02 -0.02 0.02 c0.34 0 0.68 0.76 0.82 0.86 c0.1 0.72 0.38 0.5 0.38 1.06 c0.24 0.76 0.2 0.94 0.2 1.88 c-0.06 0.06 -0.1 0.76 -0.2 0.8 c0 1.02 -0.52 0.96 -0.52 1.4 l-0.26 0.24 c0 0.04 -0.02 0.12 -0.02 0.12 c-0.4 0.36 -0.26 0.42 -0.44 0.5 c-0.06 0 -0.16 0.3 -0.5 0.4 c-0.38 0.58 -0.54 0.12 -0.94 0.7 c-1.8 0 0.04 0.44 -1.96 0.44 c-2.28 0 -1.48 -0.06 -2.22 -0.24 c-0.02 0 -0.02 0.02 -0.04 0.02 c-0.12 0 -0.3 -0.16 -0.46 -0.16 c0 -0.02 -0.3 -0.06 -0.3 -0.1 c0 0.02 0.02 0.02 0.02 0.02 c0 -0.02 -0.28 -0.42 -0.5 -0.42 c-0.04 0 -0.08 0.02 -0.12 0.04 z M87.21499999999999 20.14 c-0.02 0 -0.02 0.02 -0.02 0.04 c0 0 0 0.02 0.02 0.02 s0.02 -0.02 0.02 -0.02 c0 -0.02 0 -0.04 -0.02 -0.04 z M85.71499999999999 20.1 c-0.02 0 -0.02 0.02 -0.02 0.02 c0 0.02 0 0.02 0.02 0.02 s0.02 0 0.02 -0.02 c0 0 0 -0.02 -0.02 -0.02 z M87.615 20.1 c-0.02 0 -0.04 0.02 -0.04 0.04 s0.02 0.04 0.04 0.04 s0.02 -0.02 0.02 -0.04 s0 -0.04 -0.02 -0.04 z M87.175 20.06 c-0.02 0 -0.04 0.02 -0.04 0.04 s0.02 0.04 0.04 0.04 s0.02 -0.02 0.02 -0.04 s0 -0.04 -0.02 -0.04 z M87.615 20.02 c-0.04 0 -0.06 0 -0.06 0.02 l0.02 0.02 l0.04 0 l0 -0.04 z M86.155 20.02 c-0.02 0 -0.02 0 -0.02 0.02 c0 0 0 0.02 0.02 0.02 s0.02 -0.02 0.02 -0.02 c0 -0.02 0 -0.02 -0.02 -0.02 z M87.615 19.88 l0 0.1 c0.04 -0.02 0.08 -0.06 0.1 -0.1 l-0.1 0 z M88.155 19.82 c-0.18 0 -0.18 0.06 -0.18 0.12 c0.02 0 0.06 -0.02 0.1 -0.04 c0.02 0 0.08 0.02 0.12 0.04 l0.08 -0.04 s0 -0.08 -0.12 -0.08 z M85.77499999999999 19.84 l0 0.04 l0.08 0 l0 -0.04 l-0.08 0 z M86.77499999999999 19.84 c-0.02 0 -0.02 0.02 -0.02 0.04 c0 0 0 0.02 0.02 0.02 s0.02 -0.02 0.02 -0.02 c0 -0.02 0 -0.04 -0.02 -0.04 z M87.335 19.84 c-0.02 0 -0.04 0.02 -0.04 0.04 c0 0 0.02 0.02 0.04 0.02 s0.02 -0.02 0.02 -0.02 c0 -0.02 0 -0.04 -0.02 -0.04 z M85.49499999999999 19.72 c-0.02 0 -0.04 0 -0.04 0.02 l0.04 0 l0.02 0 c0 -0.02 0 -0.02 -0.02 -0.02 z M84.875 19.66 c-0.02 0 -0.04 0 -0.06 0.02 z M84.815 19.58 c-0.02 0 -0.04 0.02 -0.04 0.04 s0.02 0.04 0.04 0.04 s0.02 -0.02 0.02 -0.04 s0 -0.04 -0.02 -0.04 z M84.875 19.56 c-0.02 0 -0.02 0.02 -0.02 0.04 c0 0 0 0.02 0.02 0.02 s0.02 -0.02 0.02 -0.02 c0 -0.02 0 -0.04 -0.02 -0.04 z M82.015 19.52 c-0.02 0 -0.04 0.02 -0.04 0.04 c0 0 0.02 0.02 0.04 0.02 l0.02 -0.02 c0 -0.02 -0.02 -0.04 -0.02 -0.04 z M84.815 19.52 c-0.02 0 -0.04 0.02 -0.04 0.04 c0 0 0.02 0.02 0.04 0.02 s0.02 -0.02 0.02 -0.02 c0 -0.02 0 -0.04 -0.02 -0.04 z M81.735 19.46 c-0.02 0 -0.04 0.02 -0.04 0.02 c0 0.02 0.02 0.04 0.04 0.04 c0 0 0.02 -0.02 0.02 -0.04 z M84.975 19.48 l-0.04 0 c0 0.02 0 0.04 0.02 0.04 c0 0 0.02 -0.02 0.02 -0.04 z M88.895 19.46 c-0.02 0 -0.02 0.02 -0.02 0.02 l0.04 0 c0 0.02 0 -0.02 -0.02 -0.02 z M81.735 19.12 l0 -0.08 l0 0.08 z M89.815 19.08 c-0.02 0 -0.04 0.02 -0.04 0.04 l0.06 0 c0 -0.02 -0.02 -0.04 -0.02 -0.04 z M90.095 18.84 l0 0.04 l0.02 0 z M90.035 18.78 c-0.02 0 -0.04 0.02 -0.04 0.04 c0 0 0.02 0.02 0.04 0.02 s0.02 -0.02 0.02 -0.02 c0 -0.02 0 -0.04 -0.02 -0.04 z M90.155 18.8 l0.04 -0.02 z M90.27499999999999 18.68 l0 0 l-0.04 0.04 c0.02 -0.02 0.02 -0.04 0.04 -0.04 z M81.79499999999999 18.66 c-0.02 0 -0.04 0 -0.04 0.02 c0 0 0.04 0 0.04 -0.02 l0 0 z M81.735 18.46 l0 0.12 l0.02 0 c0 -0.02 0 -0.1 -0.02 -0.12 z M90.895 18.02 c-0.02 0 -0.02 0.02 -0.02 0.02 s0 0.02 0.02 0.02 s0.02 -0.02 0.02 -0.02 s0 -0.02 -0.02 -0.02 z M90.27499999999999 16.38 l0.04 0.02 l0.04 -0.02 l-0.08 0 z M81.735 16.06 l-0.04 0 c0 0.02 0 0.04 0.02 0.04 c0 0 0.02 -0.02 0.02 -0.04 z M91.695 15.719999999999999 l0 -0.02 c-0.02 0 -0.02 0 -0.02 0.02 s0 0.04 0.02 0.04 l0 -0.04 z M83.29499999999999 12.34 c-0.02 0 -0.04 0.02 -0.04 0.04 s0.02 0.04 0.04 0.04 s0.02 -0.02 0.02 -0.04 s0 -0.04 -0.02 -0.04 z M82.475 11.48 c-0.02 0 -0.04 0.02 -0.04 0.04 c0 0 0.02 0.02 0.04 0.02 l0.02 -0.02 c0 -0.02 -0.02 -0.04 -0.02 -0.04 z M88.895 11.28 c-0.02 0 -0.02 0.02 -0.02 0.04 c0 0 0 0.02 0.02 0.02 s0.02 -0.02 0.02 -0.02 c0 -0.02 0 -0.04 -0.02 -0.04 z M82.235 11.2 l0 0.04 l0.04 -0.04 l-0.04 0 z M84.13499999999999 11.02 c0 0 -0.02 0 -0.02 0.02 l0.04 0 c0 -0.02 -0.02 -0.02 -0.02 -0.02 z M86.115 10.76 c-0.04 0 -0.14 0.04 -0.14 0.06 s0.02 0.02 0.02 0.02 c0.04 0 0.08 -0.04 0.12 -0.08 z M81.85499999999999 10.18 c-0.02 0 -0.04 -0.02 -0.04 0.1 c0 0.02 0.02 0.06 0.02 0.06 c0.02 0 0.04 -0.04 0.04 -0.06 c0 -0.04 -0.02 -0.08 -0.02 -0.1 z M81.79499999999999 9.98 c-0.02 0 -0.04 0.02 -0.04 0.04 s0.02 0.04 0.04 0.04 l0 -0.08 z M90.35499999999999 6.460000000000001 c-0.02 0 -0.04 0.02 -0.04 0.04 c0 0 0.02 0.02 0.04 0.02 s0.02 -0.02 0.02 -0.02 c0 -0.02 0 -0.04 -0.02 -0.04 z M90.63499999999999 6.460000000000001 c-0.02 0 -0.02 0.02 -0.02 0.04 c0 0 0 0.02 0.02 0.02 s0.02 -0.02 0.02 -0.02 c0 -0.02 0 -0.04 -0.02 -0.04 z M90.71499999999999 6.460000000000001 c-0.02 0 -0.04 0.02 -0.04 0.04 c0 0 0.02 0.02 0.04 0.02 l0.02 -0.02 c0 -0.02 -0.02 -0.04 -0.02 -0.04 z M86.235 6.02 l0 -0.22 c0.02 -0.02 0.06 -0.04 0.08 -0.06 l0.04 0.04 c0 0.06 -0.08 0.16 -0.08 0.28 z M90.63499999999999 5.9399999999999995 c-0.02 0 -0.02 0.02 -0.02 0.04 c0 0 0 0.02 0.02 0.02 s0.02 -0.02 0.02 -0.02 c0 -0.02 0 -0.04 -0.02 -0.04 z M84.07499999999999 5.84 c-0.1 0.02 -0.1 0.1 -0.1 0.1 c0.02 -0.02 0.1 -0.06 0.1 -0.08 l0 -0.02 z M83.595 5.74 c0 0.04 0.06 0.06 0.1 0.06 c-0.02 -0.06 -0.1 -0.06 -0.12 -0.06 l0.02 0 z M90.55499999999999 5.779999999999999 c0.02 0.02 0.04 0.02 0.06 0.02 c0.08 0 0.1 -0.06 0.1 -0.12 z M83.91499999999999 5.619999999999999 c-0.06 0 -0.04 0.06 -0.04 0.12 l0.04 0 l0 -0.12 z M87.875 5.4399999999999995 c-0.06 0.1 -0.04 0.18 -0.04 0.26 c0.08 -0.02 0.1 -0.12 0.1 -0.22 c-0.02 -0.02 -0.02 -0.04 -0.06 -0.04 z M83.91499999999999 5.52 c-0.02 0 -0.04 0 -0.04 0.02 l0.04 0 l0.02 0 c0 -0.02 0 -0.02 -0.02 -0.02 z M90.35499999999999 5.48 c0 -0.02 -0.02 -0.02 -0.06 -0.02 c-0.02 0 -0.04 0 -0.04 0.02 s0.02 0.04 0.04 0.04 c0.04 0 0.06 -0.02 0.06 -0.04 z M90.435 5.42 c-0.02 0 -0.04 0.02 -0.04 0.02 l0.02 0 l0.02 0 l0 -0.02 z M88.455 5.42 l-0.02 -0.02 z M87.21499999999999 5.4 c0 -0.02 -0.02 -0.02 -0.02 -0.02 s-0.02 0 -0.02 0.02 s0.02 0.02 0.02 0.02 s0.02 0 0.02 -0.02 z M89.935 5.4 c0 -0.02 -0.02 -0.02 -0.02 -0.02 c-0.02 0 -0.02 0 -0.02 0.02 s0 0.02 0.02 0.02 c0 0 0.02 0 0.02 -0.02 z M90.195 5.359999999999999 c-0.02 0 -0.04 0.02 -0.04 0.04 c0 0 0.02 0.02 0.04 0.02 s0.02 -0.02 0.02 -0.02 c0 -0.02 0 -0.04 -0.02 -0.04 z M90.63499999999999 5.32 l0 0.08 l0.04 -0.04 z M84.55499999999999 5.16 c0 0.06 0.04 0.14 0.04 0.2 l0.04 -0.1 s-0.02 -0.08 -0.04 -0.14 z M88.07499999999999 5.24 c-0.02 0 -0.04 0.02 -0.04 0.02 s0.02 0.02 0.04 0.02 s0.02 -0.02 0.02 -0.02 s0 -0.02 -0.02 -0.02 z M90.255 5.119999999999999 c-0.06 0.02 -0.08 0.08 -0.1 0.14 c0.12 0 0.1 -0.06 0.1 -0.14 z M90.63499999999999 5.24 l0 0.02 l0.04 0 z M90.63499999999999 5.119999999999999 c-0.02 0 -0.02 0.02 -0.02 0.02 c0 0.02 0 0.02 0.02 0.02 s0.02 0 0.02 -0.02 c0 0 0 -0.02 -0.02 -0.02 z M86.455 5.039999999999999 c-0.02 0.06 0.1 0.08 0.1 0.08 c0.04 -0.06 0.24 0.02 0.22 -0.08 l-0.32 0 z M87.71499999999999 5.08 l-0.04 0 c0 0.02 0 0.04 0.02 0.04 c0 0 0.02 -0.02 0.02 -0.04 z M85.335 5 l0 0.04 l0.08 0 l0 -0.04 l-0.08 0 z M85.71499999999999 4.960000000000001 c-0.06 0 -0.14 0.06 -0.16 0.08 l0.16 0 l0 -0.08 z M87.21499999999999 5 l0 0.04 l0.12 0 z"></path></g></svg>